<?xml version="1.0" encoding="UTF-8"?>
<svg width="99px" height="69px" viewBox="0 0 99 69" version="1.1" xmlns="http://www.w3.org/2000/svg" xmlns:xlink="http://www.w3.org/1999/xlink">
    <!-- Generator: Sketch 60 (88103) - https://sketch.com -->
    <title>StarHole</title>
    <desc>Created with Sketch.</desc>
    <g id="Page-1" stroke="none" stroke-width="1" fill="none" fill-rule="evenodd">
        <g id="Game-View" transform="translate(-147.000000, -322.000000)" fill="#D8D8D8" stroke="#979797">
            <g id="StarHole" transform="translate(147.000000, 318.250000)">
                <g id="Group-4" transform="translate(0.000000, 26.750000)">
                    <g id="Group-3">
                        <g id="Group-2" transform="translate(0.000000, 12.000000)">
                            <ellipse id="Oval" cx="1.78571429" cy="0.666666667" rx="1" ry="1"></ellipse>
                            <circle id="Oval" cx="0.75" cy="7.41666667" r="1"></circle>
                            <ellipse id="Oval" cx="8.92857143" cy="2" rx="1" ry="1"></ellipse>
                            <ellipse id="Oval" cx="8.92857143" cy="11.3333333" rx="1" ry="1"></ellipse>
                        </g>
                        <g id="Group-2" transform="translate(14.285714, 0.000000)">
                            <ellipse id="Oval" cx="1.78571429" cy="0.666666667" rx="1" ry="1"></ellipse>
                            <ellipse id="Oval" cx="0.595238095" cy="7.33333333" rx="1" ry="1"></ellipse>
                            <ellipse id="Oval" cx="9.22619048" cy="2.33333333" rx="1" ry="1"></ellipse>
                            <ellipse id="Oval" cx="8.92857143" cy="11.3333333" rx="1" ry="1"></ellipse>
                        </g>
                    </g>
                </g>
                <g id="Group-4" transform="translate(53.000000, 41.250000) rotate(90.000000) translate(-53.000000, -41.250000) translate(37.500000, 18.250000)">
                    <g id="Group-3" transform="translate(10.000000, 0.000000)">
                        <g id="Group-2" transform="translate(0.000000, 9.000000)">
                            <circle id="Oval" cx="1.5" cy="0.5" r="1"></circle>
                            <circle id="Oval" cx="0.5" cy="5.5" r="1"></circle>
                            <circle id="Oval" cx="7.5" cy="1.5" r="1"></circle>
                            <circle id="Oval" cx="7.5" cy="8.5" r="1"></circle>
                        </g>
                        <g id="Group-2" transform="translate(12.000000, 0.000000)">
                            <circle id="Oval" cx="1.5" cy="0.5" r="1"></circle>
                            <circle id="Oval" cx="0.5" cy="5.5" r="1"></circle>
                            <circle id="Oval" cx="7.75" cy="1.75" r="1"></circle>
                            <circle id="Oval" cx="7.5" cy="8.5" r="1"></circle>
                        </g>
                    </g>
                    <g id="Group-3" transform="translate(0.000000, 28.000000)">
                        <g id="Group-2" transform="translate(0.000000, 9.000000)">
                            <circle id="Oval" cx="1.5" cy="0.5" r="1"></circle>
                            <circle id="Oval" cx="0.5" cy="5.5" r="1"></circle>
                            <circle id="Oval" cx="7.5" cy="1.5" r="1"></circle>
                            <circle id="Oval" cx="7.5" cy="8.5" r="1"></circle>
                        </g>
                        <g id="Group-2" transform="translate(12.000000, 0.000000)">
                            <circle id="Oval" cx="1.5" cy="0.5" r="1"></circle>
                            <circle id="Oval" cx="0.5" cy="5.5" r="1"></circle>
                            <circle id="Oval" cx="7.75" cy="1.75" r="1"></circle>
                            <circle id="Oval" cx="7.5" cy="8.5" r="1"></circle>
                        </g>
                    </g>
                </g>
                <g id="Group-4" transform="translate(35.000000, 58.750000) rotate(45.000000) translate(-35.000000, -58.750000) translate(20.000000, 35.750000)">
                    <g id="Group-3" transform="translate(10.000000, 0.000000)">
                        <g id="Group-2" transform="translate(0.000000, 9.000000)">
                            <circle id="Oval" cx="1.5" cy="0.5" r="1"></circle>
                            <circle id="Oval" cx="0.5" cy="5.5" r="1"></circle>
                            <circle id="Oval" cx="7.5" cy="1.5" r="1"></circle>
                            <circle id="Oval" cx="7.5" cy="8.5" r="1"></circle>
                        </g>
                        <g id="Group-2" transform="translate(12.000000, 0.000000)">
                            <circle id="Oval" cx="1.5" cy="0.5" r="1"></circle>
                            <circle id="Oval" cx="0.5" cy="5.5" r="1"></circle>
                            <circle id="Oval" cx="7.5" cy="1.5" r="1"></circle>
                            <circle id="Oval" cx="7.5" cy="8.5" r="1"></circle>
                        </g>
                    </g>
                    <g id="Group-3" transform="translate(0.000000, 28.000000)">
                        <g id="Group-2" transform="translate(0.000000, 9.000000)">
                            <circle id="Oval" cx="1.5" cy="0.5" r="1"></circle>
                            <circle id="Oval" cx="0.5" cy="5.5" r="1"></circle>
                            <circle id="Oval" cx="7.5" cy="1.5" r="1"></circle>
                            <circle id="Oval" cx="7.5" cy="8.5" r="1"></circle>
                        </g>
                        <g id="Group-2" transform="translate(12.000000, 0.000000)">
                            <circle id="Oval" cx="1.5" cy="0.5" r="1"></circle>
                            <circle id="Oval" cx="0.5" cy="5.5" r="1"></circle>
                            <circle id="Oval" cx="7.5" cy="1.5" r="1"></circle>
                            <circle id="Oval" cx="7.5" cy="8.5" r="1"></circle>
                        </g>
                    </g>
                </g>
                <g id="Group-4" transform="translate(79.102886, 28.500000) rotate(120.000000) translate(-79.102886, -28.500000) translate(63.102886, 1.000000)">
                    <g id="Group-3" transform="translate(11.093267, 0.321797)">
                        <g id="Group-2" transform="translate(0.000000, 10.500000)">
                            <ellipse id="Oval" cx="1.5" cy="0.583333333" rx="1" ry="1"></ellipse>
                            <ellipse id="Oval" cx="0.5" cy="6.41666667" rx="1" ry="1"></ellipse>
                            <ellipse id="Oval" cx="7.5" cy="1.75" rx="1" ry="1"></ellipse>
                            <ellipse id="Oval" cx="7.5" cy="9.91666667" rx="1" ry="1"></ellipse>
                        </g>
                        <g id="Group-2" transform="translate(12.000000, 0.000000)">
                            <ellipse id="Oval" cx="1.5" cy="0.583333333" rx="1" ry="1"></ellipse>
                            <ellipse id="Oval" cx="0.5" cy="6.41666667" rx="1" ry="1"></ellipse>
                            <ellipse id="Oval" cx="7.5" cy="1.75" rx="1" ry="1"></ellipse>
                            <ellipse id="Oval" cx="7.5" cy="9.91666667" rx="1" ry="1"></ellipse>
                        </g>
                    </g>
                    <g id="Group-3" transform="translate(0.942632, 33.740381)">
                        <g id="Group-2" transform="translate(0.000000, 9.500000)">
                            <ellipse id="Oval" cx="1.5" cy="0.583333333" rx="1" ry="1"></ellipse>
                            <ellipse id="Oval" cx="0.5" cy="6.41666667" rx="1" ry="1"></ellipse>
                            <ellipse id="Oval" cx="7.5" cy="1.75" rx="1" ry="1"></ellipse>
                            <ellipse id="Oval" cx="7.5" cy="9.91666667" rx="1" ry="1"></ellipse>
                        </g>
                        <g id="Group-2" transform="translate(9.216506, 0.607051)">
                            <ellipse id="Oval" cx="1.5" cy="0.583333333" rx="1" ry="1"></ellipse>
                            <ellipse id="Oval" cx="0.5" cy="6.41666667" rx="1" ry="1"></ellipse>
                            <ellipse id="Oval" cx="7.5" cy="1.75" rx="1" ry="1"></ellipse>
                            <ellipse id="Oval" cx="7.5" cy="9.91666667" rx="1" ry="1"></ellipse>
                        </g>
                    </g>
                </g>
            </g>
        </g>
    </g>
</svg>