<?xml version="1.0" encoding="UTF-8"?>
<svg width="367px" height="760px" viewBox="0 0 367 760" version="1.1" xmlns="http://www.w3.org/2000/svg" xmlns:xlink="http://www.w3.org/1999/xlink">
    <!-- Generator: Sketch 60 (88103) - https://sketch.com -->
    <title>Shape</title>
    <desc>Created with Sketch.</desc>
    <g id="Page-1" stroke="none" stroke-width="1" fill="none" fill-rule="evenodd">
        <g id="Game-View" transform="translate(-8.000000, -8.000000)" fill="#D8D8D8" stroke="#979797">
            <g id="Background-Stars" transform="translate(8.000000, 7.000000)">
                <path d="M66.5833333,759.5 C66.2961532,759.5 66.0666667,759.725724 66.0666667,760 C66.0666667,760.274276 66.2961532,760.5 66.5833333,760.5 C66.8705135,760.5 67.1,760.274276 67.1,760 C67.1,759.725724 66.8705135,759.5 66.5833333,759.5 Z M68.3625,754 C68.2156922,754 68.1,754.113796 68.1,754.25 C68.1,754.386204 68.2156922,754.5 68.3625,754.5 C68.5093078,754.5 68.625,754.386204 68.625,754.25 C68.625,754.113796 68.5093078,754 68.3625,754 Z M67.0850867,749.5007 C67.0838078,749.500933 67.0833333,749.500933 67.0833333,749.5 C67.0833333,749.499067 67.0838078,749.499067 67.0850867,749.4993 Z M73.1850867,746.5007 C73.1838078,746.500933 73.1833333,746.500933 73.1833333,746.5 C73.1833333,746.499067 73.1838078,746.499067 73.1850867,746.4993 Z M62.0017534,744.5007 C62.0004745,744.500933 62,744.500933 62,744.5 C62,744.499067 62.0004745,744.499067 62.0017534,744.4993 Z M69.3791667,743 C69.2323589,743 69.1166667,743.113796 69.1166667,743.25 C69.1166667,743.386204 69.2323589,743.5 69.3791667,743.5 C69.5259744,743.5 69.6416667,743.386204 69.6416667,743.25 C69.6416667,743.113796 69.5259744,743 69.3791667,743 Z M84.8833333,740.5 C84.5961532,740.5 84.3666667,740.725724 84.3666667,741 C84.3666667,741.274276 84.5961532,741.5 84.8833333,741.5 C85.1705135,741.5 85.4,741.274276 85.4,741 C85.4,740.725724 85.1705135,740.5 84.8833333,740.5 Z M36.0833333,735.5 C35.7961532,735.5 35.5666667,735.725724 35.5666667,736 C35.5666667,736.274276 35.7961532,736.5 36.0833333,736.5 C36.3705135,736.5 36.6,736.274276 36.6,736 C36.6,735.725724 36.3705135,735.5 36.0833333,735.5 Z M86.6625,735 C86.5156922,735 86.4,735.113796 86.4,735.25 C86.4,735.386204 86.5156922,735.5 86.6625,735.5 C86.8093078,735.5 86.925,735.386204 86.925,735.25 C86.925,735.113796 86.8093078,735 86.6625,735 Z M75.4791667,730.5 C75.3323589,730.5 75.2166667,730.613796 75.2166667,730.75 C75.2166667,730.886204 75.3323589,731 75.4791667,731 C75.6259744,731 75.7416667,730.886204 75.7416667,730.75 C75.7416667,730.613796 75.6259744,730.5 75.4791667,730.5 Z M37.8625,730 C37.7156922,730 37.6,730.113796 37.6,730.25 C37.6,730.386204 37.7156922,730.5 37.8625,730.5 C38.0093078,730.5 38.125,730.386204 38.125,730.25 C38.125,730.113796 38.0093078,730 37.8625,730 Z M85.3850867,730.5007 C85.3838078,730.500933 85.3833333,730.500933 85.3833333,730.5 C85.3833333,730.499067 85.3838078,730.499067 85.3850867,730.4993 Z M68.1017534,729.5007 C68.1004745,729.500933 68.1,729.500933 68.1,729.5 C68.1,729.499067 68.1004745,729.499067 68.1017534,729.4993 Z M79.2850867,727.5007 C79.2838078,727.500933 79.2833333,727.500933 79.2833333,727.5 C79.2833333,727.499067 79.2838078,727.499067 79.2850867,727.4993 Z M91.4850867,727.5007 C91.4838078,727.500933 91.4833333,727.500933 91.4833333,727.5 C91.4833333,727.499067 91.4838078,727.499067 91.4850867,727.4993 Z M36.5850867,725.5007 C36.5838078,725.500933 36.5833333,725.500933 36.5833333,725.5 C36.5833333,725.499067 36.5838078,725.499067 36.5850867,725.4993 Z M80.3017534,725.5007 C80.3004745,725.500933 80.3,725.500933 80.3,725.5 C80.3,725.499067 80.3004745,725.499067 80.3017534,725.4993 Z M73.1850867,724.5007 C73.1838078,724.500933 73.1833333,724.500933 73.1833333,724.5 C73.1833333,724.499067 73.1838078,724.499067 73.1850867,724.4993 Z M87.6791667,724 C87.5323589,724 87.4166667,724.113796 87.4166667,724.25 C87.4166667,724.386204 87.5323589,724.5 87.6791667,724.5 C87.8259744,724.5 87.9416667,724.386204 87.9416667,724.25 C87.9416667,724.113796 87.8259744,724 87.6791667,724 Z M42.6850867,722.5007 C42.6838078,722.500933 42.6833333,722.500933 42.6833333,722.5 C42.6833333,722.499067 42.6838078,722.499067 42.6850867,722.4993 Z M31.5017534,720.5007 C31.5004745,720.500933 31.5,720.500933 31.5,720.5 C31.5,720.499067 31.5004745,720.499067 31.5017534,720.4993 Z M74.4625,719.5 C74.3156922,719.5 74.2,719.613796 74.2,719.75 C74.2,719.886204 74.3156922,720 74.4625,720 C74.6093078,720 74.725,719.886204 74.725,719.75 C74.725,719.613796 74.6093078,719.5 74.4625,719.5 Z M38.8791667,719 C38.7323589,719 38.6166667,719.113796 38.6166667,719.25 C38.6166667,719.386204 38.7323589,719.5 38.8791667,719.5 C39.0259744,719.5 39.1416667,719.386204 39.1416667,719.25 C39.1416667,719.113796 39.0259744,719 38.8791667,719 Z M54.3833333,716.5 C54.0961532,716.5 53.8666667,716.725724 53.8666667,717 C53.8666667,717.274276 54.0961532,717.5 54.3833333,717.5 C54.6705135,717.5 54.9,717.274276 54.9,717 C54.9,716.725724 54.6705135,716.5 54.3833333,716.5 Z M72.6833333,713.5 C72.3961532,713.5 72.1666667,713.725724 72.1666667,714 C72.1666667,714.274276 72.3961532,714.5 72.6833333,714.5 C72.9705135,714.5 73.2,714.274276 73.2,714 C73.2,713.725724 72.9705135,713.5 72.6833333,713.5 Z M56.1625,711 C56.0156922,711 55.9,711.113796 55.9,711.25 C55.9,711.386204 56.0156922,711.5 56.1625,711.5 C56.3093078,711.5 56.425,711.386204 56.425,711.25 C56.425,711.113796 56.3093078,711 56.1625,711 Z M44.9791667,706.5 C44.8323589,706.5 44.7166667,706.613796 44.7166667,706.75 C44.7166667,706.886204 44.8323589,707 44.9791667,707 C45.1259744,707 45.2416667,706.886204 45.2416667,706.75 C45.2416667,706.613796 45.1259744,706.5 44.9791667,706.5 Z M54.8850867,706.5007 C54.8838078,706.500933 54.8833333,706.500933 54.8833333,706.5 C54.8833333,706.499067 54.8838078,706.499067 54.8850867,706.4993 Z M37.6017534,705.5007 C37.6004745,705.500933 37.6,705.500933 37.6,705.5 C37.6,705.499067 37.6004745,705.499067 37.6017534,705.4993 Z M48.7850867,703.5007 C48.7838078,703.500933 48.7833333,703.500933 48.7833333,703.5 C48.7833333,703.499067 48.7838078,703.499067 48.7850867,703.4993 Z M60.9850867,703.5007 C60.9838078,703.500933 60.9833333,703.500933 60.9833333,703.5 C60.9833333,703.499067 60.9838078,703.499067 60.9850867,703.4993 Z M49.8017534,701.5007 C49.8004745,701.500933 49.8,701.500933 49.8,701.5 C49.8,701.499067 49.8004745,701.499067 49.8017534,701.4993 Z M42.6850867,700.5007 C42.6838078,700.500933 42.6833333,700.500933 42.6833333,700.5 C42.6833333,700.499067 42.6838078,700.499067 42.6850867,700.4993 Z M57.1791667,700 C57.0323589,700 56.9166667,700.113796 56.9166667,700.25 C56.9166667,700.386204 57.0323589,700.5 57.1791667,700.5 C57.3259744,700.5 57.4416667,700.386204 57.4416667,700.25 C57.4416667,700.113796 57.3259744,700 57.1791667,700 Z M177.583333,698.5 C177.296153,698.5 177.066667,698.725724 177.066667,699 C177.066667,699.274276 177.296153,699.5 177.583333,699.5 C177.870513,699.5 178.1,699.274276 178.1,699 C178.1,698.725724 177.870513,698.5 177.583333,698.5 Z M43.9625,695.5 C43.8156922,695.5 43.7,695.613796 43.7,695.75 C43.7,695.886204 43.8156922,696 43.9625,696 C44.1093078,696 44.225,695.886204 44.225,695.75 C44.225,695.613796 44.1093078,695.5 43.9625,695.5 Z M179.3625,693 C179.215692,693 179.1,693.113796 179.1,693.25 C179.1,693.386204 179.215692,693.5 179.3625,693.5 C179.509308,693.5 179.625,693.386204 179.625,693.25 C179.625,693.113796 179.509308,693 179.3625,693 Z M42.1833333,689.5 C41.8961532,689.5 41.6666667,689.725724 41.6666667,690 C41.6666667,690.274276 41.8961532,690.5 42.1833333,690.5 C42.4705135,690.5 42.7,690.274276 42.7,690 C42.7,689.725724 42.4705135,689.5 42.1833333,689.5 Z M178.085087,688.5007 C178.083808,688.500933 178.083333,688.500933 178.083333,688.5 C178.083333,688.499067 178.083808,688.499067 178.085087,688.4993 Z M319.048333,685.041667 C318.30443,685.041667 317.758,685.416823 317.758,685.770833 C317.758,686.124844 318.30443,686.5 319.048333,686.5 C319.792236,686.5 320.338666,686.124844 320.338666,685.770833 C320.338666,685.416823 319.792236,685.041667 319.048333,685.041667 Z M184.185087,685.5007 C184.183808,685.500933 184.183333,685.500933 184.183333,685.5 C184.183333,685.499067 184.183808,685.499067 184.185087,685.4993 Z M173.001753,683.5007 C173.000474,683.500933 173,683.500933 173,683.5 C173,683.499067 173.000474,683.499067 173.001753,683.4993 Z M180.379167,682 C180.232359,682 180.116667,682.113796 180.116667,682.25 C180.116667,682.386204 180.232359,682.5 180.379167,682.5 C180.525974,682.5 180.641667,682.386204 180.641667,682.25 C180.641667,682.113796 180.525974,682 180.379167,682 Z M195.883333,679.5 C195.596153,679.5 195.366667,679.725724 195.366667,680 C195.366667,680.274276 195.596153,680.5 195.883333,680.5 C196.170513,680.5 196.4,680.274276 196.4,680 C196.4,679.725724 196.170513,679.5 195.883333,679.5 Z M315.91525,678.28125 C315.41854,678.28125 315.0725,678.518827 315.0725,678.703125 C315.0725,678.887423 315.41854,679.125 315.91525,679.125 C316.411959,679.125 316.758,678.887423 316.758,678.703125 C316.758,678.518827 316.411959,678.28125 315.91525,678.28125 Z M147.083333,674.5 C146.796153,674.5 146.566667,674.725724 146.566667,675 C146.566667,675.274276 146.796153,675.5 147.083333,675.5 C147.370513,675.5 147.6,675.274276 147.6,675 C147.6,674.725724 147.370513,674.5 147.083333,674.5 Z M197.6625,674 C197.515692,674 197.4,674.113796 197.4,674.25 C197.4,674.386204 197.515692,674.5 197.6625,674.5 C197.809308,674.5 197.925,674.386204 197.925,674.25 C197.925,674.113796 197.809308,674 197.6625,674 Z M318.153166,672.75 C317.903651,672.75 317.758,672.849998 317.758,672.864583 C317.758,672.879169 317.903651,672.979167 318.153166,672.979167 C318.402682,672.979167 318.548333,672.879169 318.548333,672.864583 C318.548333,672.849998 318.402682,672.75 318.153166,672.75 Z M186.479167,669.5 C186.332359,669.5 186.216667,669.613796 186.216667,669.75 C186.216667,669.886204 186.332359,670 186.479167,670 C186.625974,670 186.741667,669.886204 186.741667,669.75 C186.741667,669.613796 186.625974,669.5 186.479167,669.5 Z M148.8625,669 C148.715692,669 148.6,669.113796 148.6,669.25 C148.6,669.386204 148.715692,669.5 148.8625,669.5 C149.009308,669.5 149.125,669.386204 149.125,669.25 C149.125,669.113796 149.009308,669 148.8625,669 Z M196.385087,669.5007 C196.383808,669.500933 196.383333,669.500933 196.383333,669.5 C196.383333,669.499067 196.383808,669.499067 196.385087,669.4993 Z M307.411166,669.0625 C307.16165,669.0625 307.015999,669.162498 307.015999,669.177083 C307.015999,669.191669 307.16165,669.291667 307.411166,669.291667 C307.660682,669.291667 307.806333,669.191669 307.806333,669.177083 C307.806333,669.162498 307.660682,669.0625 307.411166,669.0625 Z M179.101753,668.5007 C179.100474,668.500933 179.1,668.500933 179.1,668.5 C179.1,668.499067 179.100474,668.499067 179.101753,668.4993 Z M327.104833,666.604167 C326.855317,666.604167 326.709667,666.704164 326.709667,666.71875 C326.709667,666.733336 326.855317,666.833333 327.104833,666.833333 C327.354349,666.833333 327.5,666.733336 327.5,666.71875 C327.5,666.704164 327.354349,666.604167 327.104833,666.604167 Z M190.285087,666.5007 C190.283808,666.500933 190.283333,666.500933 190.283333,666.5 C190.283333,666.499067 190.283808,666.499067 190.285087,666.4993 Z M202.485087,666.5007 C202.483808,666.500933 202.483333,666.500933 202.483333,666.5 C202.483333,666.499067 202.483808,666.499067 202.485087,666.4993 Z M314.124916,664.760417 C313.628207,664.760417 313.282166,664.997993 313.282166,665.182292 C313.282166,665.36659 313.628207,665.604167 314.124916,665.604167 C314.621626,665.604167 314.967666,665.36659 314.967666,665.182292 C314.967666,664.997993 314.621626,664.760417 314.124916,664.760417 Z M147.585087,664.5007 C147.583808,664.500933 147.583333,664.500933 147.583333,664.5 C147.583333,664.499067 147.583808,664.499067 147.585087,664.4993 Z M191.301753,664.5007 C191.300474,664.500933 191.3,664.500933 191.3,664.5 C191.3,664.499067 191.300474,664.499067 191.301753,664.4993 Z M184.185087,663.5007 C184.183808,663.500933 184.183333,663.500933 184.183333,663.5 C184.183333,663.499067 184.183808,663.499067 184.185087,663.4993 Z M198.679167,663 C198.532359,663 198.416667,663.113796 198.416667,663.25 C198.416667,663.386204 198.532359,663.5 198.679167,663.5 C198.825974,663.5 198.941667,663.386204 198.941667,663.25 C198.941667,663.113796 198.825974,663 198.679167,663 Z M46.243898,662.751058 C46.2199625,662.477474 45.9727726,662.272868 45.6887607,662.297716 C45.4047487,662.322564 45.1968436,662.566985 45.2207791,662.840569 C45.2447146,663.114153 45.4919044,663.318758 45.7759164,663.293911 C46.0599284,663.269063 46.2678334,663.024641 46.243898,662.751058 Z M286.822332,661.6875 C286.078429,661.6875 285.531999,662.062656 285.531999,662.416667 C285.531999,662.770677 286.078429,663.145833 286.822332,663.145833 C287.566235,663.145833 288.112666,662.770677 288.112666,662.416667 C288.112666,662.062656 287.566235,661.6875 286.822332,661.6875 Z M153.685087,661.5007 C153.683808,661.500933 153.683333,661.500933 153.683333,661.5 C153.683333,661.499067 153.683808,661.499067 153.685087,661.4993 Z M142.501753,659.5007 C142.500474,659.500933 142.5,659.500933 142.5,659.5 C142.5,659.499067 142.500474,659.499067 142.501753,659.4993 Z M185.4625,658.5 C185.315692,658.5 185.2,658.613796 185.2,658.75 C185.2,658.886204 185.315692,659 185.4625,659 C185.609308,659 185.725,658.886204 185.725,658.75 C185.725,658.613796 185.609308,658.5 185.4625,658.5 Z M149.879167,658 C149.732359,658 149.616667,658.113796 149.616667,658.25 C149.616667,658.386204 149.732359,658.5 149.879167,658.5 C150.025974,658.5 150.141667,658.386204 150.141667,658.25 C150.141667,658.113796 150.025974,658 149.879167,658 Z M47.2572376,656.890438 C47.2453358,656.7544 47.1209109,656.65141 46.9763034,656.664061 C46.831696,656.676713 46.7270453,656.799744 46.7389471,656.935782 C46.7508489,657.07182 46.8752739,657.17481 47.0198813,657.162159 C47.1644888,657.149507 47.2691394,657.026476 47.2572376,656.890438 Z M165.383333,655.5 C165.096153,655.5 164.866667,655.725724 164.866667,656 C164.866667,656.274276 165.096153,656.5 165.383333,656.5 C165.670513,656.5 165.9,656.274276 165.9,656 C165.9,655.725724 165.670513,655.5 165.383333,655.5 Z M283.689249,654.927083 C283.192539,654.927083 282.846499,655.16466 282.846499,655.348958 C282.846499,655.533257 283.192539,655.770833 283.689249,655.770833 C284.185958,655.770833 284.531999,655.533257 284.531999,655.348958 C284.531999,655.16466 284.185958,654.927083 283.689249,654.927083 Z M183.683333,652.5 C183.396153,652.5 183.166667,652.725724 183.166667,653 C183.166667,653.274276 183.396153,653.5 183.683333,653.5 C183.970513,653.5 184.2,653.274276 184.2,653 C184.2,652.725724 183.970513,652.5 183.683333,652.5 Z M45.3272988,652.290572 C45.3283147,652.290293 45.3286967,652.290259 45.3287627,652.291013 C45.3288286,652.291767 45.3284466,652.291801 45.3273977,652.291702 Z M167.1625,650 C167.015692,650 166.9,650.113796 166.9,650.25 C166.9,650.386204 167.015692,650.5 167.1625,650.5 C167.309308,650.5 167.425,650.386204 167.425,650.25 C167.425,650.113796 167.309308,650 167.1625,650 Z M303.382916,649.395833 C302.886207,649.395833 302.540166,649.63341 302.540166,649.817708 C302.540166,650.002007 302.886207,650.239583 303.382916,650.239583 C303.879625,650.239583 304.225666,650.002007 304.225666,649.817708 C304.225666,649.63341 303.879625,649.395833 303.382916,649.395833 Z M285.927165,649.395833 C285.67765,649.395833 285.531999,649.495831 285.531999,649.510417 C285.531999,649.525002 285.67765,649.625 285.927165,649.625 C286.176681,649.625 286.322332,649.525002 286.322332,649.510417 C286.322332,649.495831 286.176681,649.395833 285.927165,649.395833 Z M51.1237723,648.771986 C51.1247882,648.771708 51.1251702,648.771674 51.1252362,648.772428 C51.1253021,648.773182 51.1249201,648.773215 51.1238712,648.773117 Z M316.362833,648.166667 C316.113317,648.166667 315.967666,648.266664 315.967666,648.28125 C315.967666,648.295836 316.113317,648.395833 316.362833,648.395833 C316.612349,648.395833 316.758,648.295836 316.758,648.28125 C316.758,648.266664 316.612349,648.166667 316.362833,648.166667 Z M39.8432361,647.751266 C39.8422202,647.751545 39.8405704,647.752069 39.837969,647.752296 C39.832766,647.752752 39.831106,647.751377 39.8312379,647.752885 C39.8313698,647.754393 39.832766,647.752752 39.837969,647.752296 C39.8405704,647.752069 39.8422862,647.752298 39.8433351,647.752397 Z M47.3081812,645.843963 C47.2962795,645.707925 47.1718545,645.604935 47.0272471,645.617586 C46.8826396,645.630238 46.777989,645.753269 46.7898908,645.889307 C46.8017925,646.025345 46.9262175,646.128335 47.0708249,646.115684 C47.2154324,646.103032 47.320083,645.980001 47.3081812,645.843963 Z M155.979167,645.5 C155.832359,645.5 155.716667,645.613796 155.716667,645.75 C155.716667,645.886204 155.832359,646 155.979167,646 C156.125974,646 156.241667,645.886204 156.241667,645.75 C156.241667,645.613796 156.125974,645.5 155.979167,645.5 Z M275.185165,645.708333 C274.935649,645.708333 274.789998,645.808331 274.789998,645.822917 C274.789998,645.837502 274.935649,645.9375 275.185165,645.9375 C275.434681,645.9375 275.580332,645.837502 275.580332,645.822917 C275.580332,645.808331 275.434681,645.708333 275.185165,645.708333 Z M296.669166,645.708333 C296.41965,645.708333 296.273999,645.808331 296.273999,645.822917 C296.273999,645.837502 296.41965,645.9375 296.669166,645.9375 C296.918682,645.9375 297.064332,645.837502 297.064332,645.822917 C297.064332,645.808331 296.918682,645.708333 296.669166,645.708333 Z M165.885087,645.5007 C165.883808,645.500933 165.883333,645.500933 165.883333,645.5 C165.883333,645.499067 165.883808,645.499067 165.885087,645.4993 Z M148.601753,644.5007 C148.600474,644.500933 148.6,644.500933 148.6,644.5 C148.6,644.499067 148.600474,644.499067 148.601753,644.4993 Z M170.9375,643.464407 C170.768096,643.464407 170.625,643.61157 170.625,643.8 C170.625,643.98843 170.768096,644.135593 170.9375,644.135593 C171.106904,644.135593 171.25,643.98843 171.25,643.8 C171.25,643.61157 171.106904,643.464407 170.9375,643.464407 Z M294.878832,643.25 C294.629317,643.25 294.483666,643.349998 294.483666,643.364583 C294.483666,643.379169 294.629317,643.479167 294.878832,643.479167 C295.128348,643.479167 295.273999,643.379169 295.273999,643.364583 C295.273999,643.349998 295.128348,643.25 294.878832,643.25 Z M62.761761,642.233355 C62.7378256,641.959771 62.4906357,641.755165 62.2066237,641.780013 C61.9226118,641.804861 61.7147067,642.049282 61.7386422,642.322866 C61.7625777,642.59645 62.0097675,642.801056 62.2937795,642.776208 C62.5777915,642.75136 62.7856965,642.506939 62.761761,642.233355 Z M159.785087,642.5007 C159.783808,642.500933 159.783333,642.500933 159.783333,642.5 C159.783333,642.499067 159.783808,642.499067 159.785087,642.4993 Z M171.985087,642.5007 C171.983808,642.500933 171.983333,642.500933 171.983333,642.5 C171.983333,642.499067 171.983808,642.499067 171.985087,642.4993 Z M281.898915,641.40625 C281.402206,641.40625 281.056165,641.643827 281.056165,641.828125 C281.056165,642.012423 281.402206,642.25 281.898915,642.25 C282.395625,642.25 282.741665,642.012423 282.741665,641.828125 C282.741665,641.643827 282.395625,641.40625 281.898915,641.40625 Z M307.411166,642.020833 C307.16165,642.020833 307.015999,642.120831 307.015999,642.135417 C307.015999,642.150002 307.16165,642.25 307.411166,642.25 C307.660682,642.25 307.806333,642.150002 307.806333,642.135417 C307.806333,642.120831 307.660682,642.020833 307.411166,642.020833 Z M160.801753,640.5007 C160.800474,640.500933 160.8,640.500933 160.8,640.5 C160.8,640.499067 160.800474,640.499067 160.801753,640.4993 Z M168.179167,639 C168.032359,639 167.916667,639.113796 167.916667,639.25 C167.916667,639.386204 168.032359,639.5 168.179167,639.5 C168.325974,639.5 168.441667,639.386204 168.441667,639.25 C168.441667,639.113796 168.325974,639 168.179167,639 Z M153.685087,639.5007 C153.683808,639.500933 153.683333,639.500933 153.683333,639.5 C153.683333,639.499067 153.683808,639.499067 153.685087,639.4993 Z M298.162791,636.875 C297.638457,636.875 297.230233,637.249013 297.230233,637.6875 C297.230233,638.125987 297.638457,638.5 298.162791,638.5 C298.687124,638.5 299.095349,638.125987 299.095349,637.6875 C299.095349,637.249013 298.687124,636.875 298.162791,636.875 Z M176.21875,636.779661 C175.82498,636.779661 175.5,637.113878 175.5,637.533051 C175.5,637.952224 175.82498,638.286441 176.21875,638.286441 C176.61252,638.286441 176.9375,637.952224 176.9375,637.533051 C176.9375,637.113878 176.61252,636.779661 176.21875,636.779661 Z M305.173249,635.875 C304.67654,635.875 304.330499,636.112577 304.330499,636.296875 C304.330499,636.481173 304.67654,636.71875 305.173249,636.71875 C305.669959,636.71875 306.015999,636.481173 306.015999,636.296875 C306.015999,636.112577 305.669959,635.875 305.173249,635.875 Z M63.7751007,636.372735 C63.7631989,636.236697 63.638774,636.133707 63.4941665,636.146359 C63.3495591,636.15901 63.2449084,636.282042 63.2568102,636.41808 C63.268712,636.554118 63.3931369,636.657108 63.5377444,636.644456 C63.6823519,636.631805 63.7870025,636.508773 63.7751007,636.372735 Z M158.34375,635.108475 C157.94998,635.108475 157.625,635.442691 157.625,635.861864 C157.625,636.281038 157.94998,636.615254 158.34375,636.615254 C158.73752,636.615254 159.0625,636.281038 159.0625,635.861864 C159.0625,635.442691 158.73752,635.108475 158.34375,635.108475 Z M154.9625,634.5 C154.815692,634.5 154.7,634.613796 154.7,634.75 C154.7,634.886204 154.815692,635 154.9625,635 C155.109308,635 155.225,634.886204 155.225,634.75 C155.225,634.613796 155.109308,634.5 154.9625,634.5 Z M166.0625,633.437288 C165.893096,633.437288 165.75,633.584451 165.75,633.772881 C165.75,633.961312 165.893096,634.108475 166.0625,634.108475 C166.231904,634.108475 166.375,633.961312 166.375,633.772881 C166.375,633.584451 166.231904,633.437288 166.0625,633.437288 Z M149,631.766102 C148.381864,631.766102 147.875,632.287372 147.875,632.937288 C147.875,633.587204 148.381864,634.108475 149,634.108475 C149.618136,634.108475 150.125,633.587204 150.125,632.937288 C150.125,632.287372 149.618136,631.766102 149,631.766102 Z M51.995741,632.635151 C51.8511335,632.647803 51.7464829,632.770834 51.7583847,632.906872 C51.7702865,633.04291 51.8947114,633.1459 52.0393189,633.133249 C52.1839263,633.120597 52.288577,632.997566 52.2766752,632.861528 C52.2647734,632.72549 52.1403485,632.6225 51.995741,632.635151 Z M44.5832075,632.279274 C44.5842563,632.279373 44.5859721,632.279602 44.5885736,632.279375 C44.5937765,632.27892 44.5951727,632.277278 44.5953046,632.278786 C44.5954365,632.280294 44.5937765,632.27892 44.5885736,632.279375 C44.5859721,632.279602 44.5843223,632.280126 44.5833064,632.280405 Z M61.8452608,631.774 C61.8442119,631.773902 61.8424962,631.773672 61.8398947,631.7739 C61.8346917,631.774355 61.8332956,631.775996 61.8331637,631.774488 C61.8330317,631.772981 61.8346917,631.774355 61.8398947,631.7739 C61.8424962,631.773672 61.844146,631.773148 61.8451619,631.772869 Z M300.669767,629.65625 C300.343229,629.65625 300.095349,629.883356 300.095349,630.140625 C300.095349,630.397894 300.343229,630.625 300.669767,630.625 C300.996306,630.625 301.244186,630.397894 301.244186,630.140625 C301.244186,629.883356 300.996306,629.65625 300.669767,629.65625 Z M308.306333,628.5 C307.56243,628.5 307.015999,628.875156 307.015999,629.229167 C307.015999,629.583177 307.56243,629.958333 308.306333,629.958333 C309.050236,629.958333 309.596666,629.583177 309.596666,629.229167 C309.596666,628.875156 309.050236,628.5 308.306333,628.5 Z M153.183333,628.5 C152.896153,628.5 152.666667,628.725724 152.666667,629 C152.666667,629.274276 152.896153,629.5 153.183333,629.5 C153.470513,629.5 153.7,629.274276 153.7,629 C153.7,628.725724 153.470513,628.5 153.183333,628.5 Z M55.5152115,629.316349 C55.5142016,629.316626 55.5138215,629.316657 55.5137557,629.315905 C55.5136897,629.315152 55.5140718,629.315118 55.5151206,629.315216 Z M67.6417343,628.255415 C67.6406854,628.255316 67.6389697,628.255087 67.6363682,628.255314 C67.6311652,628.255769 67.6297691,628.257411 67.6296372,628.255903 C67.6295052,628.254395 67.6311652,628.255769 67.6363682,628.255314 C67.6389697,628.255087 67.6406195,628.254563 67.6416354,628.254284 Z M56.3611981,627.234694 C56.3601493,627.234596 56.3584335,627.234366 56.355832,627.234594 C56.3506291,627.235049 56.3492329,627.23669 56.349101,627.235183 C56.3489691,627.233675 56.3506291,627.235049 56.355832,627.234594 C56.3584335,627.234366 56.3600833,627.233842 56.3610992,627.233563 Z M49.1957127,626.856633 C49.1967616,626.856731 49.1984773,626.856961 49.2010788,626.856734 C49.2062817,626.856278 49.2076779,626.854637 49.2078098,626.856145 C49.2079417,626.857652 49.2062817,626.856278 49.2010788,626.856734 C49.1984773,626.856961 49.1968275,626.857485 49.1958116,626.857764 Z M174.1875,625.081356 C174.018096,625.081356 173.875,625.228519 173.875,625.416949 C173.875,625.60538 174.018096,625.752542 174.1875,625.752542 C174.356904,625.752542 174.5,625.60538 174.5,625.416949 C174.5,625.228519 174.356904,625.081356 174.1875,625.081356 Z M63.8260443,625.32626 C63.8141425,625.190222 63.6897176,625.087232 63.5451101,625.099884 C63.4005027,625.112535 63.2958521,625.235566 63.3077538,625.371604 C63.3196556,625.507643 63.4440806,625.610632 63.588688,625.597981 C63.7332955,625.585329 63.8379461,625.462298 63.8260443,625.32626 Z M170.9375,623.410169 C170.768096,623.410169 170.625,623.557332 170.625,623.745763 C170.625,623.934193 170.768096,624.081356 170.9375,624.081356 C171.106904,624.081356 171.25,623.934193 171.25,623.745763 C171.25,623.557332 171.106904,623.410169 170.9375,623.410169 Z M298.87907,623.75 C298.750326,623.75 298.662791,623.830199 298.662791,623.90625 C298.662791,623.982301 298.750326,624.0625 298.87907,624.0625 C299.007813,624.0625 299.095349,623.982301 299.095349,623.90625 C299.095349,623.830199 299.007813,623.75 298.87907,623.75 Z M50.0273711,621.765343 C49.8827636,621.777995 49.778113,621.901026 49.7900147,622.037064 C49.8019165,622.173102 49.9263415,622.276092 50.0709489,622.263441 C50.2155564,622.250789 50.320207,622.127758 50.3083052,621.99172 C50.2964034,621.855682 50.1719785,621.752692 50.0273711,621.765343 Z M307.474419,619.8125 C307.345675,619.8125 307.25814,619.892699 307.25814,619.96875 C307.25814,620.044801 307.345675,620.125 307.474419,620.125 C307.603162,620.125 307.690698,620.044801 307.690698,619.96875 C307.690698,619.892699 307.603162,619.8125 307.474419,619.8125 Z M165.65625,616.725424 C165.26248,616.725424 164.9375,617.05964 164.9375,617.478814 C164.9375,617.897987 165.26248,618.232203 165.65625,618.232203 C166.05002,618.232203 166.375,617.897987 166.375,617.478814 C166.375,617.05964 166.05002,616.725424 165.65625,616.725424 Z M291.716279,617.1875 C291.587536,617.1875 291.5,617.267699 291.5,617.34375 C291.5,617.419801 291.587536,617.5 291.716279,617.5 C291.845023,617.5 291.932558,617.419801 291.932558,617.34375 C291.932558,617.267699 291.845023,617.1875 291.716279,617.1875 Z M47.7375372,615.942759 C47.4535252,615.967607 47.2456202,616.212028 47.2695556,616.485612 C47.2934911,616.759196 47.540681,616.963801 47.824693,616.938953 C48.1087049,616.914106 48.31661,616.669684 48.2926745,616.3961 C48.268739,616.122517 48.0215492,615.917911 47.7375372,615.942759 Z M183.53125,615.054237 C183.13748,615.054237 182.8125,615.388454 182.8125,615.807627 C182.8125,616.2268 183.13748,616.561017 183.53125,616.561017 C183.92502,616.561017 184.25,616.2268 184.25,615.807627 C184.25,615.388454 183.92502,615.054237 183.53125,615.054237 Z M302.102326,615.21875 C301.775787,615.21875 301.527907,615.445856 301.527907,615.703125 C301.527907,615.960394 301.775787,616.1875 302.102326,616.1875 C302.428864,616.1875 302.676744,615.960394 302.676744,615.703125 C302.676744,615.445856 302.428864,615.21875 302.102326,615.21875 Z M175.8125,613.383051 C175.643096,613.383051 175.5,613.530214 175.5,613.718644 C175.5,613.907075 175.643096,614.054237 175.8125,614.054237 C175.981904,614.054237 176.125,613.907075 176.125,613.718644 C176.125,613.530214 175.981904,613.383051 175.8125,613.383051 Z M140.0625,613.383051 C139.893096,613.383051 139.75,613.530214 139.75,613.718644 C139.75,613.907075 139.893096,614.054237 140.0625,614.054237 C140.231904,614.054237 140.375,613.907075 140.375,613.718644 C140.375,613.530214 140.231904,613.383051 140.0625,613.383051 Z M192.875,611.711864 C192.256864,611.711864 191.75,612.233135 191.75,612.883051 C191.75,613.532967 192.256864,614.054237 192.875,614.054237 C193.493136,614.054237 194,613.532967 194,612.883051 C194,612.233135 193.493136,611.711864 192.875,611.711864 Z M323.948837,611.9375 C323.424504,611.9375 323.016279,612.311513 323.016279,612.75 C323.016279,613.188487 323.424504,613.5625 323.948837,613.5625 C324.473171,613.5625 324.881395,613.188487 324.881395,612.75 C324.881395,612.311513 324.473171,611.9375 323.948837,611.9375 Z M145.34375,606.698305 C144.94998,606.698305 144.625,607.032522 144.625,607.451695 C144.625,607.870868 144.94998,608.205085 145.34375,608.205085 C145.73752,608.205085 146.0625,607.870868 146.0625,607.451695 C146.0625,607.032522 145.73752,606.698305 145.34375,606.698305 Z M127.46875,605.027119 C127.07498,605.027119 126.75,605.361335 126.75,605.780508 C126.75,606.199682 127.07498,606.533898 127.46875,606.533898 C127.86252,606.533898 128.1875,606.199682 128.1875,605.780508 C128.1875,605.361335 127.86252,605.027119 127.46875,605.027119 Z M167.6875,605.027119 C167.518096,605.027119 167.375,605.174281 167.375,605.362712 C167.375,605.551142 167.518096,605.698305 167.6875,605.698305 C167.856904,605.698305 168,605.551142 168,605.362712 C168,605.174281 167.856904,605.027119 167.6875,605.027119 Z M326.455814,604.71875 C326.129275,604.71875 325.881395,604.945856 325.881395,605.203125 C325.881395,605.460394 326.129275,605.6875 326.455814,605.6875 C326.782353,605.6875 327.030233,605.460394 327.030233,605.203125 C327.030233,604.945856 326.782353,604.71875 326.455814,604.71875 Z M135.1875,603.355932 C135.018096,603.355932 134.875,603.503095 134.875,603.691525 C134.875,603.879956 135.018096,604.027119 135.1875,604.027119 C135.356904,604.027119 135.5,603.879956 135.5,603.691525 C135.5,603.503095 135.356904,603.355932 135.1875,603.355932 Z M118.125,601.684746 C117.506864,601.684746 117,602.206016 117,602.855932 C117,603.505848 117.506864,604.027119 118.125,604.027119 C118.743136,604.027119 119.25,603.505848 119.25,602.855932 C119.25,602.206016 118.743136,601.684746 118.125,601.684746 Z M310.697674,598.8125 C310.371136,598.8125 310.123256,599.039606 310.123256,599.296875 C310.123256,599.554144 310.371136,599.78125 310.697674,599.78125 C311.024213,599.78125 311.272093,599.554144 311.272093,599.296875 C311.272093,599.039606 311.024213,598.8125 310.697674,598.8125 Z M324.665116,598.8125 C324.536373,598.8125 324.448837,598.892699 324.448837,598.96875 C324.448837,599.044801 324.536373,599.125 324.665116,599.125 C324.79386,599.125 324.881395,599.044801 324.881395,598.96875 C324.881395,598.892699 324.79386,598.8125 324.665116,598.8125 Z M300.311628,597.5 C300.182884,597.5 300.095349,597.580199 300.095349,597.65625 C300.095349,597.732301 300.182884,597.8125 300.311628,597.8125 C300.440371,597.8125 300.527907,597.732301 300.527907,597.65625 C300.527907,597.580199 300.440371,597.5 300.311628,597.5 Z M143.3125,595 C143.143096,595 143,595.147163 143,595.335593 C143,595.524024 143.143096,595.671186 143.3125,595.671186 C143.481904,595.671186 143.625,595.524024 143.625,595.335593 C143.625,595.147163 143.481904,595 143.3125,595 Z M316.069767,594.875 C315.941024,594.875 315.853488,594.955199 315.853488,595.03125 C315.853488,595.107301 315.941024,595.1875 316.069767,595.1875 C316.198511,595.1875 316.286047,595.107301 316.286047,595.03125 C316.286047,594.955199 316.198511,594.875 316.069767,594.875 Z M333.260465,594.875 C333.131722,594.875 333.044186,594.955199 333.044186,595.03125 C333.044186,595.107301 333.131722,595.1875 333.260465,595.1875 C333.389209,595.1875 333.476744,595.107301 333.476744,595.03125 C333.476744,594.955199 333.389209,594.875 333.260465,594.875 Z M317.502326,592.25 C317.373582,592.25 317.286047,592.330199 317.286047,592.40625 C317.286047,592.482301 317.373582,592.5625 317.502326,592.5625 C317.631069,592.5625 317.718605,592.482301 317.718605,592.40625 C317.718605,592.330199 317.631069,592.25 317.502326,592.25 Z M307.474419,590.9375 C307.345675,590.9375 307.25814,591.017699 307.25814,591.09375 C307.25814,591.169801 307.345675,591.25 307.474419,591.25 C307.603162,591.25 307.690698,591.169801 307.690698,591.09375 C307.690698,591.017699 307.603162,590.9375 307.474419,590.9375 Z M327.888372,590.28125 C327.561834,590.28125 327.313953,590.508356 327.313953,590.765625 C327.313953,591.022894 327.561834,591.25 327.888372,591.25 C328.214911,591.25 328.462791,591.022894 328.462791,590.765625 C328.462791,590.508356 328.214911,590.28125 327.888372,590.28125 Z M309.265116,584.375 C308.938578,584.375 308.690698,584.602106 308.690698,584.859375 C308.690698,585.116644 308.938578,585.34375 309.265116,585.34375 C309.591655,585.34375 309.839535,585.116644 309.839535,584.859375 C309.839535,584.602106 309.591655,584.375 309.265116,584.375 Z M306.75814,576.5 C306.233806,576.5 305.825581,576.874013 305.825581,577.3125 C305.825581,577.750987 306.233806,578.125 306.75814,578.125 C307.282473,578.125 307.690698,577.750987 307.690698,577.3125 C307.690698,576.874013 307.282473,576.5 306.75814,576.5 Z M2.58709253,542.016621 C2.30823587,541.737764 1.85064314,541.740187 1.56505249,542.025778 C1.27946184,542.311369 1.27703848,542.768962 1.55589514,543.047818 C1.83475179,543.326675 2.29234452,543.324251 2.57793518,543.038661 C2.86352583,542.75307 2.86594918,542.295477 2.58709253,542.016621 Z M34.5808874,540.982636 C34.3020307,540.70378 33.844438,540.706203 33.5588473,540.991794 C33.2732567,541.277384 33.2708333,541.734977 33.54969,542.013834 C33.8285466,542.29269 34.2861394,542.290267 34.57173,542.004676 C34.8573207,541.719086 34.859744,541.261493 34.5808874,540.982636 Z M8.87241978,538.741275 C8.71230362,538.581159 8.44825224,538.582557 8.28266645,538.748143 C8.11708066,538.913729 8.11568227,539.17778 8.27579843,539.337896 C8.4359146,539.498013 8.69996598,539.496614 8.86555177,539.331028 C9.03113756,539.165443 9.03253594,538.901391 8.87241978,538.741275 Z M40.8662146,537.707291 C40.7060984,537.547175 40.4420471,537.548573 40.2764613,537.714159 C40.1108755,537.879744 40.1094771,538.143796 40.2695933,538.303912 C40.4297094,538.464028 40.6937608,538.46263 40.8593466,538.297044 C41.0249324,538.131458 41.0263308,537.867407 40.8662146,537.707291 Z M30.86649,536.738019 C30.8583341,536.727989 30.8547449,536.723678 30.860538,536.720977 C30.8662924,536.718294 30.8673129,536.723723 30.8697183,536.736237 Z M19.4760354,536.307609 C19.4346597,536.266234 19.3641497,536.266607 19.3185688,536.312188 C19.2729878,536.357769 19.2726144,536.428279 19.3139901,536.469655 C19.3553658,536.51103 19.4258758,536.510657 19.4714567,536.465076 C19.5170377,536.419495 19.5174111,536.348985 19.4760354,536.307609 Z M51.4698302,535.273625 C51.4284546,535.232249 51.3579445,535.232623 51.3123636,535.278204 C51.2667827,535.323785 51.2664093,535.394295 51.3077849,535.43567 C51.3491606,535.477046 51.4196706,535.476673 51.4652516,535.431092 C51.5108325,535.385511 51.5112059,535.315001 51.4698302,535.273625 Z M36.8708758,535.225402 C36.8627199,535.215372 36.8591307,535.211062 36.8649238,535.20836 C36.8706781,535.205677 36.8716987,535.211106 36.8741041,535.22362 Z M11.7086107,533.755097 C11.6672351,533.713722 11.596725,533.714095 11.5511441,533.759676 C11.5055632,533.805257 11.5051898,533.875767 11.5465654,533.917143 C11.5879411,533.958518 11.6584511,533.958145 11.7040321,533.912564 C11.749613,533.866983 11.7499864,533.796473 11.7086107,533.755097 Z M43.7024056,532.721113 C43.6610299,532.679737 43.5905199,532.680111 43.5449389,532.725692 C43.499358,532.771272 43.4989846,532.841783 43.5403603,532.883158 C43.5817359,532.924534 43.652246,532.92416 43.6978269,532.87858 C43.7434078,532.832999 43.7437812,532.762489 43.7024056,532.721113 Z M19.2930875,530.040597 C19.1329713,529.880481 18.8689199,529.881879 18.7033341,530.047465 C18.5377483,530.213051 18.5363499,530.477102 18.6964661,530.637218 C18.8565823,530.797334 19.1206336,530.795936 19.2862194,530.63035 C19.4518052,530.464764 19.4532036,530.200713 19.2930875,530.040597 Z M51.2868823,529.006612 C51.1267661,528.846496 50.8627147,528.847895 50.6971289,529.013481 C50.5315432,529.179066 50.5301448,529.443118 50.6902609,529.603234 C50.8503771,529.76335 51.1144285,529.761952 51.2800143,529.596366 C51.4456001,529.43078 51.4469984,529.166729 51.2868823,529.006612 Z M35.3241578,529.510278 C35.3160019,529.500248 35.3124127,529.495937 35.3182058,529.493235 C35.3239601,529.490552 35.3249807,529.495981 35.3273861,529.508495 Z M27.4151075,529.336505 C27.4069516,529.326476 27.4033624,529.322165 27.4091555,529.319463 C27.4149099,529.31678 27.4159304,529.322209 27.4183359,529.334723 Z M11.7543975,525.109363 C11.7130218,525.067988 11.6425118,525.068361 11.5969309,525.113942 C11.5513499,525.159523 11.5509765,525.230033 11.5923522,525.271409 C11.6337279,525.312784 11.7042379,525.312411 11.7498188,525.26683 C11.7953998,525.221249 11.7957732,525.150739 11.7543975,525.109363 Z M40.9924268,524.958267 C40.9468459,525.003848 40.9464725,525.074358 40.9878481,525.115734 C41.0292238,525.157109 41.0997338,525.156736 41.1453148,525.111155 C41.1908957,525.065574 41.1912691,524.995064 41.1498934,524.953688 C41.1085178,524.912313 41.0380077,524.912686 40.9924268,524.958267 Z M34.7277036,524.343032 C34.5621178,524.508618 34.5607194,524.772669 34.7208356,524.932786 C34.8809517,525.092902 35.1450031,525.091503 35.3105889,524.925918 C35.4761747,524.760332 35.4775731,524.49628 35.3174569,524.336164 C35.1573408,524.176048 34.8932894,524.177446 34.7277036,524.343032 Z M43.7481923,524.075379 C43.7068167,524.034003 43.6363066,524.034377 43.5907257,524.079957 C43.5451448,524.125538 43.5447714,524.196048 43.586147,524.237424 C43.6275227,524.2788 43.6980327,524.278426 43.7436137,524.232845 C43.7891946,524.187264 43.789568,524.116754 43.7481923,524.075379 Z M37.4516605,522.081835 C37.4435046,522.071806 37.4399154,522.067495 37.4457085,522.064793 C37.4514629,522.06211 37.4524834,522.067539 37.4548889,522.080053 Z M43.4560463,520.569219 C43.4478904,520.559189 43.4443012,520.554878 43.4500943,520.552177 C43.4558487,520.549493 43.4568692,520.554922 43.4592746,520.567436 Z M29.7941806,517.236629 C29.7485996,517.28221 29.7482262,517.35272 29.7896019,517.394096 C29.8309775,517.435471 29.9014876,517.435098 29.9470685,517.389517 C29.9926494,517.343936 29.9930229,517.273426 29.9516472,517.23205 C29.9102715,517.190675 29.8397615,517.191048 29.7941806,517.236629 Z M38.4399147,517.190842 C38.3943337,517.236423 38.3939603,517.306933 38.435336,517.348309 C38.4767116,517.389685 38.5472217,517.389311 38.5928026,517.34373 C38.6383835,517.298149 38.6387569,517.227639 38.5973813,517.186264 C38.5560056,517.144888 38.4854956,517.145261 38.4399147,517.190842 Z M41.9093283,514.854094 C41.9011724,514.844064 41.8975832,514.839753 41.9033763,514.837052 C41.9091306,514.834368 41.9101512,514.839797 41.9125566,514.852312 Z M34.0002781,514.680322 C33.9921221,514.670292 33.9885329,514.665981 33.9943261,514.66328 C34.0000804,514.660596 34.0011009,514.666025 34.0035064,514.67854 Z M43.4283818,513.922365 C43.262796,514.08795 43.2613976,514.352002 43.4215138,514.512118 C43.5816299,514.672234 43.8456813,514.670836 44.0112671,514.50525 C44.1768529,514.339664 44.1782513,514.075613 44.0181351,513.915497 C43.858019,513.75538 43.5939676,513.756779 43.4283818,513.922365 Z M46.7060168,507.204751 C46.4204262,507.490341 46.4180028,507.947934 46.6968595,508.226791 C46.9757161,508.505647 47.4333088,508.503224 47.7188995,508.217633 C48.0044902,507.932043 48.0069135,507.47445 47.7280569,507.195593 C47.4492002,506.916737 46.9916075,506.91916 46.7060168,507.204751 Z M28.3673463,500.360254 C28.3591904,500.350225 28.3556012,500.345914 28.3613943,500.343212 C28.3671487,500.340529 28.3681692,500.345958 28.3705746,500.358472 Z M34.3717321,498.847638 C34.3635762,498.837608 34.359987,498.833297 34.3657801,498.830596 C34.3715344,498.827912 34.372555,498.833341 34.3749604,498.845855 Z M32.8250141,493.132513 C32.8168582,493.122483 32.813269,493.118172 32.8190621,493.115471 C32.8248164,493.112787 32.825837,493.118216 32.8282424,493.130731 Z M24.9159639,492.958741 C24.9078079,492.948711 24.9042187,492.9444 24.9100119,492.941699 C24.9157662,492.939015 24.9167867,492.944444 24.9191922,492.956959 Z M361.27673,488.916667 C360.935054,488.916667 360.632075,489.258557 360.632075,489.708333 C360.632075,490.158109 360.935054,490.5 361.27673,490.5 C361.618406,490.5 361.921384,490.158109 361.921384,489.708333 C361.921384,489.258557 361.618406,488.916667 361.27673,488.916667 Z M33.0748933,488.352805 C33.0667374,488.342776 33.0631482,488.338465 33.0689413,488.335763 C33.0746957,488.33308 33.0757162,488.338509 33.0781217,488.351023 Z M39.0792791,486.840189 C39.0711232,486.830159 39.067534,486.825848 39.0733271,486.823147 C39.0790815,486.820463 39.080102,486.825892 39.0825074,486.838406 Z M87.0884816,485.003086 C86.9981077,485.159618 87.0908058,485.421836 87.3473118,485.56993 C87.6038179,485.718024 87.8772547,485.667194 87.9676286,485.510662 C88.0580024,485.354129 87.9653043,485.091911 87.7087983,484.943817 C87.4522923,484.795723 87.1788554,484.846554 87.0884816,485.003086 Z M359.273585,481.8125 C359.089953,481.8125 358.915094,482.009816 358.915094,482.28125 C358.915094,482.552684 359.089953,482.75 359.273585,482.75 C359.457217,482.75 359.632075,482.552684 359.632075,482.28125 C359.632075,482.009816 359.457217,481.8125 359.273585,481.8125 Z M37.5325611,481.125064 C37.5244052,481.115034 37.520816,481.110723 37.5266091,481.108022 C37.5323635,481.105338 37.533384,481.110767 37.5357894,481.123282 Z M29.6235109,480.951292 C29.6153549,480.941262 29.6117657,480.936951 29.6175589,480.93425 C29.6233132,480.931566 29.6243337,480.936995 29.6267392,480.94951 Z M74.8722747,477.950055 C74.7819009,478.106588 74.8745989,478.368806 75.131105,478.5169 C75.387611,478.664994 75.6610479,478.614163 75.7514217,478.457631 C75.8417956,478.301099 75.7490975,478.038881 75.4925915,477.890787 C75.2360854,477.742693 74.9626486,477.793523 74.8722747,477.950055 Z M94.0025729,477.057831 C93.912199,477.214363 94.0048971,477.476582 94.2614031,477.624676 C94.5179092,477.77277 94.791346,477.721939 94.8817199,477.565407 C94.9720938,477.408875 94.8793957,477.146657 94.6228896,476.998563 C94.3663836,476.850469 94.0929467,476.901299 94.0025729,477.057831 Z M360.704403,476 C360.678814,476 360.632075,476.052741 360.632075,476.145833 C360.632075,476.238925 360.678814,476.291667 360.704403,476.291667 C360.729991,476.291667 360.77673,476.238925 360.77673,476.145833 C360.77673,476.052741 360.729991,476 360.704403,476 Z M353.836478,472.125 C353.810889,472.125 353.764151,472.177741 353.764151,472.270833 C353.764151,472.363925 353.810889,472.416667 353.836478,472.416667 C353.862066,472.416667 353.908805,472.363925 353.908805,472.270833 C353.908805,472.177741 353.862066,472.125 353.836478,472.125 Z M86.1381973,470.527814 C86.0478235,470.684346 86.1405216,470.946565 86.3970276,471.094659 C86.6535336,471.242752 86.9269705,471.191922 87.0173443,471.03539 C87.1077182,470.878858 87.0150201,470.616639 86.7585141,470.468546 C86.502008,470.320452 86.2285712,470.371282 86.1381973,470.527814 Z M366.427673,469.541667 C366.402084,469.541667 366.355346,469.594408 366.355346,469.6875 C366.355346,469.780592 366.402084,469.833333 366.427673,469.833333 C366.453261,469.833333 366.5,469.780592 366.5,469.6875 C366.5,469.594408 366.453261,469.541667 366.427673,469.541667 Z M358.128931,467.604167 C357.945299,467.604167 357.77044,467.801483 357.77044,468.072917 C357.77044,468.344351 357.945299,468.541667 358.128931,468.541667 C358.312563,468.541667 358.487421,468.344351 358.487421,468.072917 C358.487421,467.801483 358.312563,467.604167 358.128931,467.604167 Z M340.672956,464.375 C340.33128,464.375 340.028302,464.716891 340.028302,465.166667 C340.028302,465.616443 340.33128,465.958333 340.672956,465.958333 C341.014632,465.958333 341.31761,465.616443 341.31761,465.166667 C341.31761,464.716891 341.014632,464.375 340.672956,464.375 Z M81.7197678,458.029244 C81.6293939,458.185776 81.722092,458.447994 81.978598,458.596088 C82.2351041,458.744182 82.5085409,458.693351 82.5989148,458.536819 C82.6892886,458.380287 82.5965905,458.118069 82.3400845,457.969975 C82.0835785,457.821881 81.8101416,457.872711 81.7197678,458.029244 Z M338.669811,457.270833 C338.486179,457.270833 338.311321,457.468149 338.311321,457.739583 C338.311321,458.011017 338.486179,458.208333 338.669811,458.208333 C338.853444,458.208333 339.028302,458.011017 339.028302,457.739583 C339.028302,457.468149 338.853444,457.270833 338.669811,457.270833 Z M351.261006,451.458333 C351.077374,451.458333 350.902516,451.655649 350.902516,451.927083 C350.902516,452.198517 351.077374,452.395833 351.261006,452.395833 C351.444639,452.395833 351.619497,452.198517 351.619497,451.927083 C351.619497,451.655649 351.444639,451.458333 351.261006,451.458333 Z M340.100629,451.458333 C340.07504,451.458333 340.028302,451.511075 340.028302,451.604167 C340.028302,451.697259 340.07504,451.75 340.100629,451.75 C340.126217,451.75 340.172956,451.697259 340.172956,451.604167 C340.172956,451.511075 340.126217,451.458333 340.100629,451.458333 Z M69.5035609,450.976213 C69.4131871,451.132745 69.5058851,451.394964 69.7623912,451.543058 C70.0188972,451.691151 70.2923341,451.640321 70.3827079,451.483789 C70.4730818,451.327257 70.3803837,451.065039 70.1238777,450.916945 C69.8673716,450.768851 69.5939348,450.819681 69.5035609,450.976213 Z M88.6338591,450.083989 C88.5434852,450.240521 88.6361833,450.50274 88.8926893,450.650834 C89.1491954,450.798927 89.4226322,450.748097 89.5130061,450.591565 C89.6033799,450.435033 89.5106819,450.172814 89.2541758,450.024721 C88.9976698,449.876627 88.7242329,449.927457 88.6338591,450.083989 Z M359.559748,450.166667 C359.53416,450.166667 359.487421,450.219408 359.487421,450.3125 C359.487421,450.405592 359.53416,450.458333 359.559748,450.458333 C359.585337,450.458333 359.632075,450.405592 359.632075,450.3125 C359.632075,450.219408 359.585337,450.166667 359.559748,450.166667 Z M346.968553,447.583333 C346.942965,447.583333 346.896226,447.636075 346.896226,447.729167 C346.896226,447.822259 346.942965,447.875 346.968553,447.875 C346.994142,447.875 347.040881,447.822259 347.040881,447.729167 C347.040881,447.636075 346.994142,447.583333 346.968553,447.583333 Z M333.232704,447.583333 C333.207116,447.583333 333.160377,447.636075 333.160377,447.729167 C333.160377,447.822259 333.207116,447.875 333.232704,447.875 C333.258293,447.875 333.305031,447.822259 333.305031,447.729167 C333.305031,447.636075 333.258293,447.583333 333.232704,447.583333 Z M345.823899,445 C345.798311,445 345.751572,445.052741 345.751572,445.145833 C345.751572,445.238925 345.798311,445.291667 345.823899,445.291667 C345.849488,445.291667 345.896226,445.238925 345.896226,445.145833 C345.896226,445.052741 345.849488,445 345.823899,445 Z M80.7694835,443.553972 C80.6791097,443.710504 80.7718078,443.972723 81.0283138,444.120816 C81.2848198,444.26891 81.5582567,444.21808 81.6486305,444.061548 C81.7390044,443.905016 81.6463063,443.642797 81.3898003,443.494703 C81.1332942,443.34661 80.8598574,443.39744 80.7694835,443.553972 Z M353.836478,443.708333 C353.810889,443.708333 353.764151,443.761075 353.764151,443.854167 C353.764151,443.947259 353.810889,444 353.836478,444 C353.862066,444 353.908805,443.947259 353.908805,443.854167 C353.908805,443.761075 353.862066,443.708333 353.836478,443.708333 Z M337.525157,443.0625 C337.341525,443.0625 337.166667,443.259816 337.166667,443.53125 C337.166667,443.802684 337.341525,444 337.525157,444 C337.708789,444 337.883648,443.802684 337.883648,443.53125 C337.883648,443.259816 337.708789,443.0625 337.525157,443.0625 Z M352.40566,437.25 C352.222028,437.25 352.04717,437.447316 352.04717,437.71875 C352.04717,437.990184 352.222028,438.1875 352.40566,438.1875 C352.589293,438.1875 352.764151,437.990184 352.764151,437.71875 C352.764151,437.447316 352.589293,437.25 352.40566,437.25 Z M46.7323425,436.953164 C46.6393004,437.114317 46.7363395,437.385884 47.0030376,437.539862 C47.2697356,437.69384 47.5534383,437.642095 47.6464804,437.480942 C47.7395225,437.319788 47.6424833,437.048222 47.3757853,436.894244 C47.1090873,436.740265 46.8253846,436.79201 46.7323425,436.953164 Z M354.408805,429.5 C354.067129,429.5 353.764151,429.841891 353.764151,430.291667 C353.764151,430.741443 354.067129,431.083333 354.408805,431.083333 C354.750481,431.083333 355.053459,430.741443 355.053459,430.291667 C355.053459,429.841891 354.750481,429.5 354.408805,429.5 Z M34.2711992,429.758719 C34.1781571,429.919873 34.2751962,430.191439 34.5418942,430.345417 C34.8085923,430.499395 35.092295,430.447651 35.1853371,430.286497 C35.2783792,430.125343 35.18134,429.853777 34.914642,429.699799 C34.647944,429.545821 34.3642413,429.597566 34.2711992,429.758719 Z M53.7489923,428.911081 C53.6559502,429.072235 53.7529893,429.343801 54.0196874,429.497779 C54.2863854,429.651757 54.5700881,429.600012 54.6631302,429.438859 C54.7561723,429.277705 54.6591331,429.006139 54.3924351,428.852161 C54.1257371,428.698183 53.8420344,428.749927 53.7489923,428.911081 Z M45.7209234,422.260549 C45.6278813,422.421702 45.7249204,422.693268 45.9916185,422.847247 C46.2583165,423.001225 46.5420192,422.94948 46.6350613,422.788326 C46.7281034,422.627173 46.6310642,422.355607 46.3643662,422.201628 C46.0976682,422.04765 45.8139655,422.099395 45.7209234,422.260549 Z M41.206683,415.186828 C41.1136409,415.347981 41.2106801,415.619547 41.4773781,415.773526 C41.7440761,415.927504 42.0277788,415.875759 42.1208209,415.714605 C42.213863,415.553452 42.1168239,415.281886 41.8501258,415.127908 C41.5834278,414.973929 41.2997251,415.025674 41.206683,415.186828 Z M28.7455397,407.992383 C28.6524976,408.153537 28.7495368,408.425103 29.0162348,408.579081 C29.2829328,408.733059 29.5666355,408.681315 29.6596776,408.520161 C29.7527197,408.359007 29.6556806,408.087441 29.3889825,407.933463 C29.1222845,407.779485 28.8385818,407.83123 28.7455397,407.992383 Z M48.2233328,407.144745 C48.1302907,407.305898 48.2273299,407.577465 48.4940279,407.731443 C48.7607259,407.885421 49.0444287,407.833676 49.1374708,407.672523 C49.2305129,407.511369 49.1334737,407.239803 48.8667757,407.085825 C48.6000776,406.931846 48.3163749,406.983591 48.2233328,407.144745 Z M40.1952639,400.494212 C40.1022218,400.655366 40.199261,400.926932 40.465959,401.08091 C40.732657,401.234889 41.0163598,401.183144 41.1094019,401.02199 C41.202444,400.860837 41.1054048,400.58927 40.8387068,400.435292 C40.5720087,400.281314 40.288306,400.333059 40.1952639,400.494212 Z M360.27673,337.916667 C359.935054,337.916667 359.632075,338.258557 359.632075,338.708333 C359.632075,339.158109 359.935054,339.5 360.27673,339.5 C360.618406,339.5 360.921384,339.158109 360.921384,338.708333 C360.921384,338.258557 360.618406,337.916667 360.27673,337.916667 Z M358.273585,330.8125 C358.089953,330.8125 357.915094,331.009816 357.915094,331.28125 C357.915094,331.552684 358.089953,331.75 358.273585,331.75 C358.457217,331.75 358.632075,331.552684 358.632075,331.28125 C358.632075,331.009816 358.457217,330.8125 358.273585,330.8125 Z M359.704403,325 C359.678814,325 359.632075,325.052741 359.632075,325.145833 C359.632075,325.238925 359.678814,325.291667 359.704403,325.291667 C359.729991,325.291667 359.77673,325.238925 359.77673,325.145833 C359.77673,325.052741 359.729991,325 359.704403,325 Z M352.836478,321.125 C352.810889,321.125 352.764151,321.177741 352.764151,321.270833 C352.764151,321.363925 352.810889,321.416667 352.836478,321.416667 C352.862066,321.416667 352.908805,321.363925 352.908805,321.270833 C352.908805,321.177741 352.862066,321.125 352.836478,321.125 Z M365.427673,318.541667 C365.402084,318.541667 365.355346,318.594408 365.355346,318.6875 C365.355346,318.780592 365.402084,318.833333 365.427673,318.833333 C365.453261,318.833333 365.5,318.780592 365.5,318.6875 C365.5,318.594408 365.453261,318.541667 365.427673,318.541667 Z M357.128931,316.604167 C356.945299,316.604167 356.77044,316.801483 356.77044,317.072917 C356.77044,317.344351 356.945299,317.541667 357.128931,317.541667 C357.312563,317.541667 357.487421,317.344351 357.487421,317.072917 C357.487421,316.801483 357.312563,316.604167 357.128931,316.604167 Z M339.672956,313.375 C339.33128,313.375 339.028302,313.716891 339.028302,314.166667 C339.028302,314.616443 339.33128,314.958333 339.672956,314.958333 C340.014632,314.958333 340.31761,314.616443 340.31761,314.166667 C340.31761,313.716891 340.014632,313.375 339.672956,313.375 Z M337.669811,306.270833 C337.486179,306.270833 337.311321,306.468149 337.311321,306.739583 C337.311321,307.011017 337.486179,307.208333 337.669811,307.208333 C337.853444,307.208333 338.028302,307.011017 338.028302,306.739583 C338.028302,306.468149 337.853444,306.270833 337.669811,306.270833 Z M350.261006,300.458333 C350.077374,300.458333 349.902516,300.655649 349.902516,300.927083 C349.902516,301.198517 350.077374,301.395833 350.261006,301.395833 C350.444639,301.395833 350.619497,301.198517 350.619497,300.927083 C350.619497,300.655649 350.444639,300.458333 350.261006,300.458333 Z M339.100629,300.458333 C339.07504,300.458333 339.028302,300.511075 339.028302,300.604167 C339.028302,300.697259 339.07504,300.75 339.100629,300.75 C339.126217,300.75 339.172956,300.697259 339.172956,300.604167 C339.172956,300.511075 339.126217,300.458333 339.100629,300.458333 Z M358.559748,299.166667 C358.53416,299.166667 358.487421,299.219408 358.487421,299.3125 C358.487421,299.405592 358.53416,299.458333 358.559748,299.458333 C358.585337,299.458333 358.632075,299.405592 358.632075,299.3125 C358.632075,299.219408 358.585337,299.166667 358.559748,299.166667 Z M345.968553,296.583333 C345.942965,296.583333 345.896226,296.636075 345.896226,296.729167 C345.896226,296.822259 345.942965,296.875 345.968553,296.875 C345.994142,296.875 346.040881,296.822259 346.040881,296.729167 C346.040881,296.636075 345.994142,296.583333 345.968553,296.583333 Z M332.232704,296.583333 C332.207116,296.583333 332.160377,296.636075 332.160377,296.729167 C332.160377,296.822259 332.207116,296.875 332.232704,296.875 C332.258293,296.875 332.305031,296.822259 332.305031,296.729167 C332.305031,296.636075 332.258293,296.583333 332.232704,296.583333 Z M344.823899,294 C344.798311,294 344.751572,294.052741 344.751572,294.145833 C344.751572,294.238925 344.798311,294.291667 344.823899,294.291667 C344.849488,294.291667 344.896226,294.238925 344.896226,294.145833 C344.896226,294.052741 344.849488,294 344.823899,294 Z M352.836478,292.708333 C352.810889,292.708333 352.764151,292.761075 352.764151,292.854167 C352.764151,292.947259 352.810889,293 352.836478,293 C352.862066,293 352.908805,292.947259 352.908805,292.854167 C352.908805,292.761075 352.862066,292.708333 352.836478,292.708333 Z M336.525157,292.0625 C336.341525,292.0625 336.166667,292.259816 336.166667,292.53125 C336.166667,292.802684 336.341525,293 336.525157,293 C336.708789,293 336.883648,292.802684 336.883648,292.53125 C336.883648,292.259816 336.708789,292.0625 336.525157,292.0625 Z M351.40566,286.25 C351.222028,286.25 351.04717,286.447316 351.04717,286.71875 C351.04717,286.990184 351.222028,287.1875 351.40566,287.1875 C351.589293,287.1875 351.764151,286.990184 351.764151,286.71875 C351.764151,286.447316 351.589293,286.25 351.40566,286.25 Z M57.448159,283.946478 C57.4477081,283.945526 57.4476088,283.945156 57.4483398,283.94496 C57.4490707,283.944764 57.44917,283.945134 57.4492555,283.946184 Z M43.1879949,280.952771 C43.1142064,280.677389 42.8373961,280.515086 42.5721249,280.586165 C42.3068538,280.657244 42.1482806,280.936208 42.2220691,281.21159 C42.2958576,281.486973 42.5726679,281.649276 42.8379391,281.578197 C43.1032102,281.507118 43.2617834,281.228154 43.1879949,280.952771 Z M48.959641,281.24248 C48.9220709,281.102266 48.7827362,281.020569 48.6508316,281.055913 C48.518927,281.091257 48.439108,281.231675 48.4766781,281.371889 C48.5142482,281.512103 48.6535828,281.593799 48.7854875,281.558456 C48.9173921,281.523112 48.9972111,281.382693 48.959641,281.24248 Z M353.408805,278.5 C353.067129,278.5 352.764151,278.841891 352.764151,279.291667 C352.764151,279.741443 353.067129,280.083333 353.408805,280.083333 C353.750481,280.083333 354.053459,279.741443 354.053459,279.291667 C354.053459,278.841891 353.750481,278.5 353.408805,278.5 Z M59.8471417,279.374449 C59.8095716,279.234235 59.6702369,279.152539 59.5383323,279.187882 C59.4064277,279.223226 59.3266086,279.363645 59.3641788,279.503858 C59.4017489,279.644072 59.5410835,279.725769 59.6729882,279.690425 C59.8048928,279.655081 59.8847118,279.514663 59.8471417,279.374449 Z M52.9764819,278.849062 C52.976031,278.84811 52.9759317,278.84774 52.9766627,278.847544 C52.9773936,278.847348 52.9774929,278.847718 52.9775784,278.848768 Z M56.4945281,272.660072 C56.4940771,272.65912 56.4939779,272.65875 56.4947088,272.658554 C56.4954398,272.658358 56.495539,272.658729 56.4956245,272.659779 Z M54.3003598,272.198732 C54.2999089,272.19778 54.2998096,272.197409 54.3005406,272.197213 C54.3012715,272.197017 54.3013708,272.197388 54.3014563,272.198438 Z M34.3738695,271.24242 C34.3734186,271.241468 34.3733193,271.241098 34.3740503,271.240902 C34.3747812,271.240706 34.3748805,271.241076 34.374966,271.242126 Z M50.1120152,269.12246 C49.9801106,269.157803 49.9002916,269.298222 49.9378617,269.438436 C49.9754318,269.578649 50.1147665,269.660346 50.2466711,269.625002 C50.3785757,269.589658 50.4583947,269.44924 50.4208246,269.309026 C50.3832545,269.168813 50.2439199,269.087116 50.1120152,269.12246 Z M20.1137054,268.248713 C20.0399169,267.973331 19.7631066,267.811028 19.4978354,267.882107 C19.2325643,267.953186 19.0739911,268.23215 19.1477796,268.507532 C19.2215681,268.782915 19.4983784,268.945218 19.7636496,268.874139 C20.0289207,268.80306 20.1874939,268.524096 20.1137054,268.248713 Z M25.8853515,268.538422 C25.8477814,268.398208 25.7084467,268.316511 25.5765421,268.351855 C25.4446375,268.387199 25.3648185,268.527617 25.4023886,268.667831 C25.4399587,268.808045 25.5792934,268.889741 25.711198,268.854398 C25.8431026,268.819054 25.9229216,268.678635 25.8853515,268.538422 Z M36.7728522,266.670391 C36.7352821,266.530177 36.5959474,266.448481 36.4640428,266.483825 C36.3321382,266.519168 36.2523191,266.659587 36.2898893,266.799801 C36.3274594,266.940014 36.466794,267.021711 36.5986987,266.986367 C36.7306033,266.951023 36.8104223,266.810605 36.7728522,266.670391 Z M29.9049551,266.155314 C29.9050405,266.156364 29.9051398,266.156735 29.9058707,266.156539 C29.9066017,266.156343 29.9065024,266.155973 29.9060515,266.155021 Z M60.4748827,265.296471 C60.3429781,265.331815 60.2631591,265.472234 60.3007292,265.612447 C60.3382993,265.752661 60.477634,265.834358 60.6095386,265.799014 C60.7414432,265.76367 60.8212622,265.623251 60.7836921,265.483038 C60.746122,265.342824 60.6067873,265.261128 60.4748827,265.296471 Z M55.6242377,265.548401 C55.6237867,265.547449 55.6236875,265.547079 55.6244184,265.546883 C55.6251494,265.546687 55.6252487,265.547057 55.6253341,265.548107 Z M65.504323,261.850304 C65.2390519,261.921383 65.0804787,262.200347 65.1542672,262.47573 C65.2280557,262.751112 65.504866,262.913415 65.7701372,262.842336 C66.0354083,262.771257 66.1939815,262.492293 66.120193,262.216911 C66.0464045,261.941528 65.7695942,261.779225 65.504323,261.850304 Z M49.4830256,261.947602 C49.4825746,261.94665 49.4824754,261.94628 49.4832063,261.946084 C49.4839373,261.945888 49.4840365,261.946258 49.484122,261.947308 Z M33.4202386,259.956015 C33.4197876,259.955062 33.4196884,259.954692 33.4204193,259.954496 C33.4211503,259.9543 33.4212495,259.954671 33.421335,259.955721 Z M324.188377,205.767549 C324.189244,205.768148 324.190706,205.769075 324.192552,205.770922 C324.196245,205.774615 324.19626,205.77677 324.19733,205.7757 C324.1984,205.774629 324.196245,205.774615 324.192552,205.770922 C324.190706,205.769075 324.189779,205.767613 324.18918,205.766747 Z M309.224469,203.531563 C309.225335,203.532162 309.226797,203.533089 309.228644,203.534935 C309.232337,203.538629 309.232351,203.540783 309.233422,203.539713 C309.234492,203.538643 309.232337,203.538629 309.228644,203.534935 C309.226797,203.533089 309.22587,203.531627 309.225271,203.53076 Z M329.138125,200.817802 C329.138991,200.818401 329.140453,200.819328 329.1423,200.821174 C329.145993,200.824867 329.146007,200.827022 329.147077,200.825952 C329.148148,200.824882 329.145993,200.824867 329.1423,200.821174 C329.140453,200.819328 329.139526,200.817866 329.138927,200.816999 Z M321.293062,198.629593 C321.293928,198.630192 321.29539,198.631119 321.297237,198.632966 C321.30093,198.636659 321.300944,198.638813 321.302014,198.637743 C321.303085,198.636673 321.30093,198.636659 321.297237,198.632966 C321.29539,198.631119 321.294463,198.629657 321.293864,198.62879 Z M314.174216,198.581816 C314.175083,198.582415 314.176545,198.583341 314.178391,198.585188 C314.182084,198.588881 314.182099,198.591036 314.183169,198.589966 C314.184239,198.588896 314.182084,198.588881 314.178391,198.585188 C314.176545,198.583341 314.175618,198.581879 314.175019,198.581013 Z M88.0631797,196.483057 C87.9206313,196.729959 88.0016,197.040459 88.2394356,197.177773 C88.4772712,197.315088 88.7866567,197.229959 88.9292051,196.983057 C89.0717535,196.736156 88.9907847,196.425656 88.7529491,196.288342 C88.5151135,196.151027 88.2057281,196.236156 88.0631797,196.483057 Z M112.32428,195.180899 C111.889093,195.934665 111.981588,196.746305 112.426792,197.003344 C112.871995,197.260382 113.621144,196.934665 114.056331,196.180899 C114.491518,195.427133 114.399022,194.615493 113.953819,194.358455 C113.508615,194.101417 112.759467,194.427133 112.32428,195.180899 Z M306.329153,196.393607 C306.33002,196.394206 306.331482,196.395133 306.333328,196.396979 C306.337021,196.400672 306.337036,196.402827 306.338106,196.401757 C306.339176,196.400687 306.337021,196.400672 306.333328,196.396979 C306.331482,196.395133 306.330555,196.393671 306.329956,196.392804 Z M325.545258,195.810721 C325.546124,195.81132 325.547586,195.812247 325.549433,195.814094 C325.553126,195.817787 325.55314,195.819942 325.554211,195.818872 C325.555281,195.817801 325.553126,195.817787 325.549433,195.814094 C325.547586,195.812247 325.546659,195.810785 325.54606,195.809919 Z M103.617168,194.291497 C103.318837,194.808222 103.348342,195.314397 103.540045,195.425077 C103.731749,195.535757 104.184862,195.308222 104.483193,194.791497 C104.781524,194.274773 104.752019,193.768597 104.560316,193.657917 C104.368612,193.547237 103.915499,193.774773 103.617168,194.291497 Z M310.581349,193.574735 C310.582216,193.575334 310.583678,193.576261 310.585524,193.578108 C310.589218,193.581801 310.589232,193.583956 310.590302,193.582885 C310.591372,193.581815 310.589218,193.581801 310.585524,193.578108 C310.583678,193.576261 310.582751,193.574799 310.582152,193.573932 Z M351.15399,193.135182 C351.154856,193.135781 351.156318,193.136708 351.158165,193.138555 C351.161858,193.142248 351.161872,193.144403 351.162943,193.143332 C351.164013,193.142262 351.161858,193.142248 351.158165,193.138555 C351.156318,193.136708 351.155391,193.135246 351.154792,193.13438 Z M336.190081,190.899196 C336.190948,190.899795 336.19241,190.900722 336.194257,190.902568 C336.19795,190.906261 336.197964,190.908416 336.199034,190.907346 C336.200104,190.906276 336.19795,190.906261 336.194257,190.902568 C336.19241,190.900722 336.191483,190.89926 336.190884,190.898393 Z M98.4414161,188.40692 C98.2988677,188.653821 98.3798364,188.964321 98.617672,189.101635 C98.8555076,189.23895 99.1648931,189.153821 99.3074415,188.90692 C99.4499899,188.660019 99.3690212,188.349518 99.1311856,188.212204 C98.89335,188.074889 98.5839645,188.160019 98.4414161,188.40692 Z M87.2328634,187.314606 C86.9345323,187.83133 86.9640375,188.337506 87.1557409,188.448186 C87.3474444,188.558866 87.8005577,188.33133 88.0988888,187.814606 C88.3972199,187.297881 88.3677146,186.791706 88.1760112,186.681026 C87.9843078,186.570346 87.5311945,186.797881 87.2328634,187.314606 Z M356.103737,188.185435 C356.104604,188.186034 356.106066,188.186961 356.107912,188.188807 C356.111605,188.1925 356.11162,188.194655 356.11269,188.193585 C356.11376,188.192515 356.111605,188.1925 356.107912,188.188807 C356.106066,188.186961 356.105139,188.185499 356.10454,188.184632 Z M348.258674,185.997226 C348.259541,185.997825 348.261003,185.998752 348.262849,186.000598 C348.266542,186.004292 348.266557,186.006446 348.267627,186.005376 C348.268697,186.004306 348.266542,186.004292 348.262849,186.000598 C348.261003,185.998752 348.260076,185.99729 348.259477,185.996423 Z M341.139829,185.949448 C341.140695,185.950047 341.142157,185.950974 341.144004,185.952821 C341.147697,185.956514 341.147712,185.958669 341.148782,185.957599 C341.149852,185.956528 341.147697,185.956514 341.144004,185.952821 C341.142157,185.950974 341.141231,185.949512 341.140632,185.948646 Z M333.294766,183.76124 C333.295632,183.761839 333.297094,183.762766 333.298941,183.764612 C333.302634,183.768305 333.302648,183.77046 333.303719,183.76939 C333.304789,183.76832 333.302634,183.768305 333.298941,183.764612 C333.297094,183.762766 333.296167,183.761304 333.295568,183.760437 Z M352.51087,183.178354 C352.511737,183.178953 352.513199,183.17988 352.515045,183.181727 C352.518739,183.18542 352.518753,183.187575 352.519823,183.186505 C352.520893,183.185434 352.518739,183.18542 352.515045,183.181727 C352.513199,183.17988 352.512272,183.178418 352.511673,183.177552 Z M203.232684,179.535339 C202.68592,178.883731 201.766784,178.771983 201.182699,179.262088 C200.598615,179.752193 200.549059,180.676771 201.095823,181.328378 C201.642587,181.979986 202.561723,182.091735 203.145807,181.601629 C203.729892,181.111524 203.779448,180.186947 203.232684,179.535339 Z M337.546962,180.942368 C337.547829,180.942967 337.549291,180.943894 337.551137,180.94574 C337.55483,180.949434 337.554845,180.951588 337.555915,180.950518 C337.556985,180.949448 337.55483,180.949434 337.551137,180.94574 C337.549291,180.943894 337.548364,180.942432 337.547765,180.941565 Z M96.3636241,176.449412 C96.2210757,176.696313 96.3020445,177.006813 96.5398801,177.144127 C96.7777157,177.281442 97.0871011,177.196313 97.2296495,176.949412 C97.3721979,176.702511 97.2912292,176.39201 97.0533936,176.254696 C96.815558,176.117382 96.5061725,176.202511 96.3636241,176.449412 Z M213.495832,175.554203 C213.128967,175.116991 212.518128,175.042726 212.134447,175.364672 C211.750767,175.686618 211.717833,176.301074 212.084697,176.738286 C212.451562,177.175497 213.062401,177.249763 213.446082,176.927817 C213.829762,176.60587 213.862696,175.991415 213.495832,175.554203 Z M230.570729,173.795619 C230.383764,173.572803 230.081222,173.53602 229.897945,173.689807 C229.714668,173.843595 229.698356,174.147928 229.885321,174.370744 C230.072285,174.59356 230.374828,174.630343 230.558105,174.476556 C230.741382,174.322768 230.757694,174.018435 230.570729,173.795619 Z M218.398684,168.132602 C218.211719,167.909786 217.909177,167.873003 217.7259,168.026791 C217.542623,168.180578 217.526311,168.484912 217.713276,168.707728 C217.90024,168.930544 218.202783,168.967327 218.38606,168.813539 C218.569337,168.659751 218.585649,168.355418 218.398684,168.132602 Z M26.994179,166.274137 C26.7931794,165.925995 26.3796987,165.801892 26.0767628,165.976792 C25.773827,166.151692 25.6745632,166.571829 25.8755628,166.91997 C26.0765625,167.268112 26.4900432,167.392215 26.792979,167.217315 C27.0959149,167.042415 27.1951786,166.622278 26.994179,166.274137 Z M43.8470518,165.672502 C43.8139766,165.615214 43.7587641,165.598642 43.72985,165.615336 C43.700936,165.63203 43.6876812,165.688131 43.7207564,165.745419 C43.7538316,165.802707 43.8090441,165.819278 43.8379581,165.802585 C43.8668722,165.785891 43.880127,165.72979 43.8470518,165.672502 Z M33.5161324,164.966325 C33.399095,164.76361 33.1647484,164.693273 32.9988235,164.789069 C32.8328985,164.884866 32.7766393,165.122985 32.8936767,165.3257 C33.0107141,165.528415 33.2450607,165.598752 33.4109856,165.502955 C33.5769106,165.407158 33.6331698,165.16904 33.5161324,164.966325 Z M230.764759,163.709949 C230.397894,163.272737 229.787055,163.198471 229.403374,163.520418 C229.019693,163.842364 228.98676,164.456819 229.353624,164.894031 C229.720488,165.331243 230.331328,165.405509 230.715008,165.083563 C231.098689,164.761616 231.131623,164.147161 230.764759,163.709949 Z M265.39896,161.075615 C265.215683,161.229402 265.199371,161.533736 265.386336,161.756552 C265.5733,161.979368 265.875843,162.016151 266.05912,161.862363 C266.242397,161.708575 266.258709,161.404242 266.071744,161.181426 C265.884779,160.95861 265.582237,160.921827 265.39896,161.075615 Z M66.2325934,161.049564 C66.2036794,161.066258 66.1904246,161.122359 66.2234998,161.179647 C66.256575,161.236935 66.3117875,161.253506 66.3407015,161.236813 C66.3696155,161.220119 66.3828703,161.164018 66.3497951,161.10673 C66.31672,161.049442 66.2615074,161.032871 66.2325934,161.049564 Z M37.2214408,161.071607 C37.1883656,161.014319 37.1331531,160.997748 37.1042391,161.014441 C37.075325,161.031135 37.0620702,161.087236 37.0951454,161.144524 C37.1282206,161.201812 37.1834331,161.218383 37.2123472,161.20169 C37.2412612,161.184996 37.254516,161.128895 37.2214408,161.071607 Z M255.469947,158.822662 C255.086266,159.144608 255.053333,159.759064 255.420197,160.196276 C255.787061,160.633487 256.3979,160.707753 256.781581,160.385807 C257.165262,160.06386 257.198196,159.449405 256.831331,159.012193 C256.464467,158.574981 255.853628,158.500716 255.469947,158.822662 Z M45.0397691,159.717516 C44.9227317,159.514801 44.6883851,159.444463 44.5224601,159.54026 C44.3565352,159.636057 44.3002759,159.874176 44.4173133,160.076891 C44.5343507,160.279605 44.7686973,160.349943 44.9346223,160.254146 C45.1005472,160.158349 45.1568065,159.92023 45.0397691,159.717516 Z M60.5751185,158.698447 C60.4091935,158.794244 60.3529343,159.032362 60.4699717,159.235077 C60.5870091,159.437792 60.8213557,159.508129 60.9872806,159.412333 C61.1532056,159.316536 61.2094648,159.078417 61.0924274,158.875702 C60.97539,158.672987 60.7410434,158.60265 60.5751185,158.698447 Z M219.141208,154.279071 C218.954243,154.056255 218.651701,154.019472 218.468423,154.17326 C218.285146,154.327048 218.268835,154.631381 218.4558,154.854197 C218.642764,155.077013 218.945307,155.113796 219.128584,154.960008 C219.311861,154.806221 219.328172,154.501887 219.141208,154.279071 Z M65.5609071,153.011169 C65.5319931,153.027863 65.5187383,153.083964 65.5518135,153.141252 C65.5848886,153.19854 65.6401012,153.215112 65.6690152,153.198418 C65.6979292,153.181725 65.711184,153.125623 65.6781088,153.068335 C65.6450336,153.011047 65.5898211,152.994476 65.5609071,153.011169 Z M39.1425041,152.940653 C39.1094289,152.883365 39.0542164,152.866794 39.0253024,152.883487 C38.9963884,152.900181 38.9831336,152.956282 39.0162088,153.01357 C39.049284,153.070858 39.1044965,153.087429 39.1334105,153.070736 C39.1623245,153.054042 39.1755793,152.997941 39.1425041,152.940653 Z M70.8825389,151.343089 C70.7166139,151.438886 70.6603547,151.677005 70.7773921,151.87972 C70.8944295,152.082434 71.1287761,152.152772 71.294701,152.056975 C71.460626,151.961178 71.5168852,151.723059 71.3998478,151.520345 C71.2828104,151.31763 71.0484638,151.247292 70.8825389,151.343089 Z M57.5587627,150.609382 C57.5298486,150.626075 57.5165938,150.682177 57.549669,150.739465 C57.5827442,150.796753 57.6379567,150.813324 57.6668708,150.796631 C57.6957848,150.779937 57.7090396,150.723836 57.6759644,150.666548 C57.6428892,150.60926 57.5876767,150.592688 57.5587627,150.609382 Z M261.93563,148.105118 C261.752353,148.258906 261.736042,148.563239 261.923006,148.786055 C262.109971,149.008871 262.412514,149.045654 262.595791,148.891866 C262.779068,148.738079 262.795379,148.433745 262.608415,148.210929 C262.42145,147.988113 262.118907,147.95133 261.93563,148.105118 Z M248.163628,146.430721 C247.980351,146.584508 247.964039,146.888842 248.151004,147.111658 C248.337969,147.334474 248.640511,147.371257 248.823788,147.217469 C249.007065,147.063681 249.023377,146.759348 248.836412,146.536532 C248.649447,146.313716 248.346905,146.276933 248.163628,146.430721 Z M75.3721671,145.94227 C75.0692313,146.11717 74.9699675,146.537307 75.1709672,146.885448 C75.3719668,147.23359 75.7854475,147.357693 76.0883833,147.182793 C76.3913192,147.007893 76.4905829,146.587756 76.2895833,146.239615 C76.0885837,145.891473 75.675103,145.76737 75.3721671,145.94227 Z M270.132978,143.872822 C269.749297,144.194769 269.716364,144.809224 270.083228,145.246436 C270.450092,145.683648 271.060932,145.757913 271.444612,145.435967 C271.828293,145.11402 271.861227,144.499565 271.494363,144.062353 C271.127498,143.625141 270.516659,143.550876 270.132978,143.872822 Z M275.872935,133.764235 C275.28885,134.25434 275.239295,135.178917 275.786059,135.830525 C276.332823,136.482133 277.251959,136.593881 277.836043,136.103776 C278.420128,135.613671 278.469683,134.689094 277.92292,134.037486 C277.376156,133.385878 276.45702,133.27413 275.872935,133.764235 Z M137.530103,120.827009 C137.343063,120.611844 137.023118,120.587313 136.815853,120.767485 C136.608588,120.947658 136.588353,121.267903 136.775394,121.483068 C136.962434,121.698234 137.282378,121.722765 137.489643,121.542592 C137.696909,121.36242 137.717143,121.042175 137.530103,120.827009 Z M111.221977,119.52378 C111.034936,119.308615 110.714992,119.284084 110.507727,119.464256 C110.300462,119.644429 110.280227,119.964674 110.467267,120.17984 C110.654307,120.395005 110.974252,120.419536 111.181517,120.239364 C111.388782,120.059191 111.409017,119.738946 111.221977,119.52378 Z M142.844624,118.557274 C142.749391,118.447721 142.588344,118.435373 142.485283,118.524963 C142.382221,118.614553 142.372036,118.77575 142.467269,118.885304 C142.562503,118.994857 142.723549,119.007206 142.826611,118.917616 C142.929672,118.828026 142.939857,118.666828 142.844624,118.557274 Z M116.536498,117.254045 C116.441264,117.144492 116.280218,117.132144 116.177156,117.221734 C116.074095,117.311324 116.063909,117.472521 116.159143,117.582075 C116.254376,117.691629 116.415423,117.703977 116.518484,117.614387 C116.621546,117.524797 116.631731,117.363599 116.536498,117.254045 Z M151.659408,117.266491 C151.658586,117.265833 151.658334,117.265543 151.658905,117.265047 C151.659476,117.26455 151.659728,117.26484 151.660265,117.265746 Z M125.351282,115.963262 C125.350459,115.962604 125.350208,115.962315 125.350779,115.961818 C125.35135,115.961322 125.351602,115.961611 125.352139,115.962517 Z M145.405732,114.645218 C145.404909,114.64456 145.404657,114.64427 145.405228,114.643774 C145.4058,114.643277 145.406051,114.643567 145.406588,114.644473 Z M119.097605,113.341989 C119.096782,113.341331 119.096531,113.341041 119.097102,113.340545 C119.097673,113.340049 119.097925,113.340338 119.098462,113.341244 Z M151.811354,112.105533 C151.716121,111.99598 151.555074,111.983632 151.452013,112.073222 C151.348951,112.162812 151.338766,112.324009 151.433999,112.433563 C151.529233,112.543116 151.690279,112.555465 151.793341,112.465875 C151.896402,112.376285 151.906588,112.215087 151.811354,112.105533 Z M125.503228,110.802305 C125.407994,110.692751 125.246948,110.680403 125.143886,110.769993 C125.040825,110.859583 125.030639,111.02078 125.125873,111.130334 C125.221106,111.239888 125.382153,111.252236 125.485214,111.162646 C125.588276,111.073056 125.598461,110.911858 125.503228,110.802305 Z M143.680312,108.087591 C143.681135,108.088249 143.682529,108.089275 143.684242,108.091246 C143.687668,108.095188 143.687532,108.097338 143.688675,108.096345 C143.689817,108.095353 143.687668,108.095188 143.684242,108.091246 C143.682529,108.089275 143.681706,108.087752 143.681169,108.086846 Z M138.567304,107.158705 C138.464243,107.248295 138.454057,107.409493 138.549291,107.519046 C138.644524,107.6286 138.805571,107.640948 138.908632,107.551358 C139.011694,107.461768 139.021879,107.30057 138.926646,107.191017 C138.831412,107.081463 138.670366,107.069115 138.567304,107.158705 Z M145.854656,107.540381 C145.853833,107.539723 145.853582,107.539433 145.854153,107.538937 C145.854724,107.53844 145.854976,107.53873 145.855513,107.539636 Z M119.54653,106.237152 C119.545707,106.236494 119.545455,106.236205 119.546026,106.235708 C119.546598,106.235212 119.546849,106.235501 119.547386,106.236407 Z M141.954893,101.529963 C141.955715,101.530621 141.957109,101.531648 141.958822,101.533619 C141.962249,101.537561 141.962113,101.539711 141.963255,101.538718 C141.964398,101.537725 141.962249,101.537561 141.958822,101.533619 C141.957109,101.531648 141.956287,101.530125 141.955749,101.529219 Z M134.856721,100.985717 C134.855899,100.985059 134.855647,100.984769 134.856218,100.984273 C134.856789,100.983776 134.857041,100.984066 134.857578,100.984972 Z M146.204185,99.1771474 C146.101123,99.2667373 146.090938,99.4279351 146.186171,99.5374886 C146.281405,99.6470422 146.442451,99.6593903 146.545513,99.5698003 C146.648574,99.4802104 146.65876,99.3190126 146.563526,99.2094591 C146.468293,99.0999056 146.307246,99.0875575 146.204185,99.1771474 Z M149.213916,93.8749913 C149.00665,94.055164 148.986416,94.375409 149.173456,94.5905743 C149.360496,94.8057397 149.680441,94.8302712 149.887706,94.6500984 C150.094971,94.4699256 150.115206,94.1496806 149.928165,93.9345153 C149.741125,93.71935 149.421181,93.6948185 149.213916,93.8749913 Z M352.066031,90.1893948 C351.801407,90.454019 351.806585,90.8950536 352.085897,91.1743654 C352.365208,91.4536771 352.806243,91.458855 353.070867,91.1942307 C353.335492,90.9296065 353.330314,90.4885719 353.051002,90.2092602 C352.77169,89.9299484 352.330656,89.9247706 352.066031,90.1893948 Z M320.863329,89.3920975 C320.598704,89.6567217 320.603882,90.0977563 320.883194,90.3770681 C321.162506,90.6563798 321.60354,90.6615577 321.868165,90.3969334 C322.132789,90.1323092 322.127611,89.6912746 321.848299,89.4119629 C321.568987,89.1326511 321.127953,89.1274733 320.863329,89.3920975 Z M345.895003,86.9447378 C345.745821,87.0939198 345.748776,87.3455622 345.909902,87.506689 C346.071029,87.6678158 346.322672,87.6707701 346.471854,87.521588 C346.621036,87.372406 346.618081,87.1207636 346.456955,86.9596368 C346.295828,86.79851 346.044185,86.7955557 345.895003,86.9447378 Z M314.692301,86.1474405 C314.543119,86.2966225 314.546073,86.5482649 314.7072,86.7093917 C314.868326,86.8705185 315.119969,86.8734728 315.269151,86.7242907 C315.418333,86.5751087 315.415379,86.3234663 315.254252,86.1623395 C315.093125,86.0012127 314.841483,85.9982584 314.692301,86.1474405 Z M335.503715,84.496456 C335.469975,84.5301959 335.470706,84.5924461 335.513647,84.6353879 C335.556589,84.6783297 335.618839,84.6790605 335.652579,84.6453206 C335.686319,84.6115806 335.685588,84.5493304 335.642647,84.5063887 C335.599705,84.4634469 335.537455,84.462716 335.503715,84.496456 Z M304.301012,83.6991587 C304.267272,83.7328986 304.268003,83.7951488 304.310945,83.8380906 C304.353886,83.8810324 304.416137,83.8817632 304.449877,83.8480233 C304.483616,83.8142833 304.482886,83.7520331 304.439944,83.7090914 C304.397002,83.6661496 304.334752,83.6654187 304.301012,83.6991587 Z M343.088265,82.0477341 C343.054525,82.0814741 343.055256,82.1437242 343.098197,82.186666 C343.141139,82.2296078 343.203389,82.2303386 343.237129,82.1965987 C343.270869,82.1628588 343.270138,82.1006086 343.227197,82.0576668 C343.184255,82.014725 343.122005,82.0139942 343.088265,82.0477341 Z M311.885562,81.2504368 C311.851822,81.2841768 311.852553,81.3464269 311.895495,81.3893687 C311.938436,81.4323105 312.000687,81.4330413 312.034427,81.3993014 C312.068166,81.3655615 312.067436,81.3033113 312.024494,81.2603695 C311.981552,81.2174277 311.919302,81.2166969 311.885562,81.2504368 Z M335.643212,78.3651587 C335.49403,78.5143408 335.496985,78.7659832 335.658111,78.92711 C335.819238,79.0882367 336.07088,79.0911911 336.220063,78.942009 C336.369245,78.7928269 336.36629,78.5411845 336.205164,78.3800578 C336.044037,78.218931 335.792394,78.2159766 335.643212,78.3651587 Z M304.44051,77.5678614 C304.291328,77.7170435 304.294282,77.9686859 304.455409,78.1298127 C304.616535,78.2909394 304.868178,78.2938938 305.01736,78.1447117 C305.166542,77.9955296 305.163588,77.7438872 305.002461,77.5827605 C304.841334,77.4216337 304.589692,77.4186793 304.44051,77.5678614 Z M342.988938,73.5873473 C342.955198,73.6210873 342.955929,73.6833374 342.99887,73.7262792 C343.041812,73.769221 343.104062,73.7699518 343.137802,73.7362119 C343.171542,73.702472 343.170811,73.6402218 343.12787,73.59728 C343.084928,73.5543382 343.022678,73.5536074 342.988938,73.5873473 Z M314.134793,73.1336699 C314.091851,73.0907281 314.029601,73.0899973 313.995861,73.1237372 C313.962121,73.1574771 313.962852,73.2197273 314.005793,73.2626691 C314.048735,73.3056109 314.110985,73.3063417 314.144725,73.2726018 C314.178465,73.2388619 314.177734,73.1766117 314.134793,73.1336699 Z M320.261124,72.5711529 C320.099997,72.4100261 319.848354,72.4070718 319.699172,72.5562538 C319.54999,72.7054359 319.552945,72.9570783 319.714071,73.1182051 C319.875198,73.2793318 320.12684,73.2822862 320.276023,73.1331041 C320.425205,72.983922 320.42225,72.7322796 320.261124,72.5711529 Z M311.786235,72.79005 C311.752495,72.82379 311.753226,72.8860401 311.796168,72.9289819 C311.83911,72.9719237 311.90136,72.9726545 311.9351,72.9389146 C311.96884,72.9051747 311.968109,72.8429245 311.925167,72.7999827 C311.882225,72.7570409 311.819975,72.7563101 311.786235,72.79005 Z M325.043901,65.6484467 C325.000959,65.6055049 324.938709,65.6047741 324.904969,65.638514 C324.871229,65.672254 324.87196,65.7345041 324.914902,65.7774459 C324.957844,65.8203877 325.020094,65.8211185 325.053834,65.7873786 C325.087574,65.7536387 325.086843,65.6913885 325.043901,65.6484467 Z M316.583514,65.5491198 C316.540573,65.5061781 316.478322,65.5054472 316.444583,65.5391872 C316.410843,65.5729271 316.411573,65.6351773 316.454515,65.6781191 C316.497457,65.7210608 316.559707,65.7217917 316.593447,65.6880517 C316.627187,65.6543118 316.626456,65.5920616 316.583514,65.5491198 Z M311.681544,62.3193618 C311.520418,62.1582351 311.268775,62.1552807 311.119593,62.3044628 C310.970411,62.4536449 310.973366,62.7052873 311.134492,62.866414 C311.295619,63.0275408 311.547261,63.0304952 311.696444,62.8813131 C311.845626,62.732131 311.842671,62.4804886 311.681544,62.3193618 Z M144.462898,60.301294 C144.261898,59.9531524 143.848417,59.8290491 143.545481,60.0039492 C143.242546,60.1788493 143.143282,60.5989858 143.344281,60.9471273 C143.545281,61.2952688 143.958762,61.4193722 144.261698,61.2444721 C144.564633,61.069572 144.663897,60.6494355 144.462898,60.301294 Z M161.31577,59.6996592 C161.282695,59.6423713 161.227483,59.6257997 161.198569,59.6424932 C161.169655,59.6591867 161.1564,59.715288 161.189475,59.7725759 C161.22255,59.8298638 161.277763,59.8464354 161.306677,59.8297419 C161.335591,59.8130484 161.348846,59.7569471 161.31577,59.6996592 Z M150.984851,58.9934821 C150.867814,58.7907673 150.633467,58.7204298 150.467542,58.8162267 C150.301617,58.9120235 150.245358,59.1501423 150.362395,59.3528571 C150.479433,59.5555718 150.713779,59.6259093 150.879704,59.5301125 C151.045629,59.4343157 151.101888,59.1961968 150.984851,58.9934821 Z M308.431921,55.7253145 C308.152609,55.4460028 307.711575,55.4408249 307.446951,55.7054491 C307.182326,55.9700733 307.187504,56.411108 307.466816,56.6904197 C307.746128,56.9697315 308.187162,56.9749093 308.451786,56.7102851 C308.716411,56.4456609 308.711233,56.0046263 308.431921,55.7253145 Z M154.690159,55.0987644 C154.657084,55.0414765 154.601872,55.0249048 154.572958,55.0415983 C154.544044,55.0582919 154.530789,55.1143931 154.563864,55.1716811 C154.596939,55.228969 154.652152,55.2455406 154.681066,55.2288471 C154.70998,55.2121536 154.723235,55.1560523 154.690159,55.0987644 Z M162.508488,53.7446729 C162.39145,53.5419581 162.157104,53.4716207 161.991179,53.5674175 C161.825254,53.6632143 161.768995,53.9013331 161.886032,54.1040479 C162.003069,54.3067626 162.237416,54.3771001 162.403341,54.2813033 C162.569266,54.1855065 162.625525,53.9473876 162.508488,53.7446729 Z M114.662857,52.2277761 C114.461857,51.8796346 114.048377,51.7555313 113.745441,51.9304314 C113.442505,52.1053315 113.343241,52.5254679 113.544241,52.8736095 C113.74524,53.221751 114.158721,53.3458543 114.461657,53.1709542 C114.764593,52.9960541 114.863857,52.5759177 114.662857,52.2277761 Z M131.51573,51.6261414 C131.482654,51.5688535 131.427442,51.5522818 131.398528,51.5689753 C131.369614,51.5856689 131.356359,51.6417701 131.389434,51.699058 C131.422509,51.756346 131.477722,51.7729176 131.506636,51.7562241 C131.53555,51.7395306 131.548805,51.6834293 131.51573,51.6261414 Z M121.18481,50.9199642 C121.067773,50.7172495 120.833426,50.646912 120.667501,50.7427088 C120.501576,50.8385056 120.445317,51.0766245 120.562355,51.2793392 C120.679392,51.4820539 120.913739,51.5523914 121.079664,51.4565946 C121.245588,51.3607978 121.301848,51.1226789 121.18481,50.9199642 Z M153.901271,47.0032035 C153.872357,47.019897 153.859102,47.0759983 153.892178,47.1332862 C153.925253,47.1905741 153.980465,47.2071458 154.009379,47.1904522 C154.038293,47.1737587 154.051548,47.1176575 154.018473,47.0603695 C153.985398,47.0030816 153.930185,46.98651 153.901271,47.0032035 Z M124.890119,47.0252465 C124.857044,46.9679586 124.801831,46.951387 124.772917,46.9680805 C124.744003,46.984774 124.730748,47.0408753 124.763823,47.0981632 C124.796899,47.1554511 124.852111,47.1720228 124.881025,47.1553292 C124.909939,47.1386357 124.923194,47.0825344 124.890119,47.0252465 Z M156.611223,46.9678104 C156.578148,46.9105224 156.522935,46.8939508 156.494021,46.9106443 C156.465107,46.9273378 156.451852,46.9834391 156.484927,47.040727 C156.518003,47.0980149 156.573215,47.1145866 156.602129,47.0978931 C156.631043,47.0811995 156.644298,47.0250983 156.611223,46.9678104 Z M132.708447,45.671155 C132.59141,45.4684403 132.357063,45.3981028 132.191138,45.4938996 C132.025213,45.5896964 131.968954,45.8278153 132.085991,46.03053 C132.203029,46.2332447 132.437375,46.3035822 132.6033,46.2077854 C132.769225,46.1119886 132.825484,45.8738697 132.708447,45.671155 Z M148.243796,44.6520861 C148.077871,44.7478829 148.021612,44.9860018 148.13865,45.1887165 C148.255687,45.3914312 148.490034,45.4617687 148.655959,45.3659719 C148.821883,45.2701751 148.878143,45.0320562 148.761105,44.8293415 C148.644068,44.6266268 148.409721,44.5562893 148.243796,44.6520861 Z M153.229585,38.9648087 C153.200671,38.9815022 153.187416,39.0376035 153.220491,39.0948914 C153.253567,39.1521793 153.308779,39.1687509 153.337693,39.1520574 C153.366607,39.1353639 153.379862,39.0792626 153.346787,39.0219747 C153.313712,38.9646868 153.258499,38.9481151 153.229585,38.9648087 Z M126.811182,38.8942925 C126.778107,38.8370046 126.722894,38.8204329 126.69398,38.8371265 C126.665066,38.85382 126.651811,38.9099213 126.684887,38.9672092 C126.717962,39.0244971 126.773174,39.0410687 126.802088,39.0243752 C126.831002,39.0076817 126.844257,38.9515804 126.811182,38.8942925 Z M158.551217,37.2967286 C158.385292,37.3925255 158.329033,37.6306443 158.44607,37.833359 C158.563107,38.0360738 158.797454,38.1064113 158.963379,38.0106145 C159.129304,37.9148176 159.185563,37.6766988 159.068526,37.473984 C158.951488,37.2712693 158.717142,37.2009318 158.551217,37.2967286 Z M145.227441,36.5630213 C145.198527,36.5797148 145.185272,36.6358161 145.218347,36.693104 C145.251422,36.7503919 145.306635,36.7669636 145.335549,36.75027 C145.364463,36.7335765 145.377718,36.6774753 145.344642,36.6201873 C145.311567,36.5628994 145.256355,36.5463278 145.227441,36.5630213 Z M163.040845,31.8959095 C162.737909,32.0708096 162.638645,32.4909461 162.839645,32.8390876 C163.040645,33.1872292 163.454125,33.3113325 163.757061,33.1364324 C164.059997,32.9615323 164.159261,32.5413958 163.958261,32.1932543 C163.757262,31.8451128 163.343781,31.7210094 163.040845,31.8959095 Z M259.91958,29.8628145 C259.717986,29.6612205 259.39711,29.659067 259.202918,29.853259 C259.008726,30.0474509 259.010879,30.3683273 259.212473,30.5699213 C259.414067,30.7715152 259.734944,30.7736687 259.929136,30.5794767 C260.123327,30.3852848 260.121174,30.0644084 259.91958,29.8628145 Z M58.4251278,29.8588727 C58.2380874,29.6437073 57.9181429,29.6191758 57.7108778,29.7993486 C57.5036127,29.9795214 57.4833778,30.2997664 57.6704182,30.5149317 C57.8574585,30.730097 58.1774031,30.7546285 58.3846681,30.5744557 C58.5919332,30.394283 58.6121681,30.074038 58.4251278,29.8588727 Z M286.25453,29.3277066 C286.052936,29.1261127 285.73206,29.1239592 285.537868,29.3181511 C285.343676,29.5123431 285.345829,29.8332195 285.547423,30.0348134 C285.749017,30.2364073 286.069893,30.2385609 286.264085,30.0443689 C286.458277,29.850177 286.456124,29.5293006 286.25453,29.3277066 Z M32.1170013,28.5556438 C31.9299609,28.3404784 31.6100164,28.3159469 31.4027513,28.4961197 C31.1954863,28.6762925 31.1752513,28.9965375 31.3622917,29.2117028 C31.5493321,29.4268681 31.8692766,29.4513996 32.0765417,29.2712268 C32.2838067,29.0910541 32.3040417,28.7708091 32.1170013,28.5556438 Z M63.7396487,27.5891376 C63.6444152,27.4795841 63.4833687,27.467236 63.3803073,27.5568259 C63.2772459,27.6464158 63.2670604,27.8076136 63.3622939,27.9171671 C63.4575273,28.0267207 63.6185739,28.0390688 63.7216353,27.9494789 C63.8246967,27.8598889 63.8348821,27.6986912 63.7396487,27.5891376 Z M265.062826,27.2278862 C264.960183,27.1252427 264.798667,27.1241587 264.702106,27.2207195 C264.605545,27.3172804 264.606629,27.478796 264.709273,27.5814396 C264.811916,27.6840831 264.973432,27.6851671 265.069993,27.5886062 C265.166554,27.4920453 265.16547,27.3305297 265.062826,27.2278862 Z M291.397776,26.6927783 C291.295133,26.5901348 291.133617,26.5890508 291.037056,26.6856117 C290.940495,26.7821726 290.941579,26.9436882 291.044223,27.0463317 C291.146866,27.1489752 291.308382,27.1500592 291.404943,27.0534983 C291.501504,26.9569375 291.50042,26.7954218 291.397776,26.6927783 Z M37.4315222,26.2859087 C37.3362888,26.1763552 37.1752422,26.1640071 37.0721808,26.253597 C36.9691194,26.3431869 36.958934,26.5043847 37.0541674,26.6139382 C37.1494008,26.7234918 37.3104474,26.7358399 37.4135088,26.64625 C37.5165702,26.55666 37.5267556,26.3954623 37.4315222,26.2859087 Z M72.5544331,26.2983541 C72.5536104,26.2976961 72.5533589,26.2974067 72.55393,26.2969102 C72.5545011,26.2964138 72.5547527,26.2967032 72.5552898,26.2976094 Z M273.773645,25.3329062 C273.774244,25.3337728 273.774516,25.334044 273.775051,25.3335089 C273.775586,25.3329738 273.775315,25.3327026 273.774448,25.3321036 Z M46.2463066,24.9951252 C46.245484,24.9944672 46.2452324,24.9941778 46.2458035,24.9936813 C46.2463746,24.9931849 46.2466262,24.9934743 46.2471633,24.9943805 Z M300.101048,24.7902508 C300.100181,24.7896518 300.09991,24.7893806 300.100445,24.7888455 C300.10098,24.7883104 300.101251,24.7885816 300.10185,24.7894482 Z M66.3007562,23.6770811 C66.2999335,23.676423 66.299682,23.6761336 66.3002531,23.6756372 C66.3008074,23.6751553 66.3010607,23.6754138 66.3015662,23.676258 Z M267.352351,23.1542529 C267.35295,23.1551195 267.353222,23.1553906 267.353757,23.1548555 C267.354292,23.1543205 267.354021,23.1540493 267.353154,23.1534503 Z M293.687301,22.6191451 C293.6879,22.6200116 293.688171,22.6202828 293.688707,22.6197477 C293.689242,22.6192126 293.688971,22.6189415 293.688104,22.6183424 Z M39.9926298,22.3738522 C39.9918071,22.3731941 39.9915555,22.3729047 39.9921266,22.3724083 C39.9926977,22.3719118 39.9929493,22.3722012 39.9934864,22.3731075 Z M72.7063787,21.1373967 C72.6111453,21.0278431 72.4500988,21.015495 72.3470373,21.1050849 C72.2439759,21.1946749 72.2337905,21.3558727 72.3290239,21.4654262 C72.4242574,21.5749797 72.5853039,21.5873278 72.6883653,21.4977379 C72.7914268,21.408148 72.8016122,21.2469502 72.7063787,21.1373967 Z M273.557663,20.1663738 C273.45502,20.0637303 273.293504,20.0626463 273.196943,20.1592072 C273.100382,20.2557681 273.101466,20.4172837 273.20411,20.5199272 C273.306753,20.6225707 273.468269,20.6236547 273.56483,20.5270939 C273.661391,20.430533 273.660307,20.2690174 273.557663,20.1663738 Z M46.3982523,19.8341678 C46.3030188,19.7246142 46.1419723,19.7122661 46.0389109,19.801856 C45.9358495,19.891446 45.925664,20.0526438 46.0208975,20.1621973 C46.1161309,20.2717508 46.2771775,20.2840989 46.3802389,20.194509 C46.4833003,20.1049191 46.4934857,19.9437213 46.3982523,19.8341678 Z M299.892613,19.631266 C299.78997,19.5286225 299.628454,19.5275385 299.531893,19.6240994 C299.435332,19.7206603 299.436416,19.8821759 299.53906,19.9848194 C299.641703,20.0874629 299.803219,20.0885469 299.89978,19.991986 C299.996341,19.8954251 299.995257,19.7339095 299.892613,19.631266 Z M64.5753368,17.1194538 C64.5745141,17.1187958 64.5742626,17.1185064 64.5748337,17.1180099 C64.5754048,17.1175135 64.5756564,17.1178029 64.5761935,17.1187091 Z M59.4623288,16.1905683 C59.3592674,16.2801583 59.349082,16.441356 59.4443154,16.5509096 C59.5395488,16.6604631 59.7005954,16.6728112 59.8036568,16.5832213 C59.9067182,16.4936314 59.9169036,16.3324336 59.8216702,16.2228801 C59.7264367,16.1133265 59.5653902,16.1009784 59.4623288,16.1905683 Z M66.7496807,16.5722441 C66.748858,16.5715861 66.7486064,16.5712967 66.7491775,16.5708002 C66.7497486,16.5703038 66.7500002,16.5705932 66.7505373,16.5714994 Z M291.5011,16.1903035 C291.501967,16.1909025 291.503429,16.1918294 291.505276,16.1936759 C291.508969,16.197369 291.508983,16.1995239 291.510053,16.1984537 C291.511123,16.1973835 291.508969,16.197369 291.505276,16.1936759 C291.503429,16.1918294 291.502502,16.1903674 291.501903,16.1895008 Z M286.335752,15.6203461 C286.239191,15.716907 286.240275,15.8784226 286.342918,15.9810661 C286.445562,16.0837096 286.607077,16.0847936 286.703638,15.9882328 C286.800199,15.8916719 286.799115,15.7301563 286.696472,15.6275127 C286.593828,15.5248692 286.432312,15.5237852 286.335752,15.6203461 Z M267.297026,16.02786 C267.29616,16.027261 267.295889,16.0269898 267.296424,16.0264548 C267.296959,16.0259197 267.29723,16.0261908 267.297829,16.0270574 Z M293.631976,15.4927522 C293.63111,15.4921532 293.630838,15.491882 293.631374,15.4913469 C293.631909,15.4908118 293.63218,15.491083 293.632779,15.4919496 Z M40.4415542,15.2690152 C40.4407315,15.2683572 40.4404799,15.2680678 40.441051,15.2675713 C40.4416222,15.2670749 40.4418738,15.2673643 40.4424109,15.2682705 Z M62.8499174,10.5618266 C62.8490947,10.5611686 62.8488431,10.5608792 62.8494143,10.5603827 C62.8499854,10.5598862 62.850237,10.5601756 62.8507741,10.5610819 Z M55.751746,10.0175799 C55.7509234,10.0169219 55.7506718,10.0166325 55.7512429,10.016136 C55.751814,10.0156396 55.7520656,10.015929 55.7526027,10.0168352 Z M289.322447,9.76900947 C289.323314,9.7696085 289.324776,9.77053539 289.326622,9.77238194 C289.330315,9.77607503 289.33033,9.77822987 289.3314,9.77715968 C289.33247,9.7760895 289.330315,9.77607503 289.326622,9.77238194 C289.324776,9.77053539 289.323849,9.7690734 289.32325,9.76820683 Z M282.211149,9.72877956 C282.211748,9.72964613 282.21202,9.72991729 282.212555,9.7293822 C282.21309,9.7288471 282.212819,9.72857594 282.211952,9.72797692 Z M67.0992095,8.20901066 C66.996148,8.29860058 66.9859626,8.45979837 67.0811961,8.56935189 C67.1764295,8.67890542 67.3374761,8.69125353 67.4405375,8.60166361 C67.5435989,8.51207369 67.5537843,8.3508759 67.4585509,8.24132238 C67.3633174,8.13176885 67.2022709,8.11942074 67.0992095,8.20901066 Z M293.397264,7.12550926 C293.300703,7.22207014 293.301787,7.38358576 293.404431,7.48622927 C293.507074,7.58887278 293.66859,7.58995678 293.765151,7.49339589 C293.861711,7.39683501 293.860627,7.23531939 293.757984,7.13267588 C293.65534,7.03003237 293.493825,7.02894837 293.397264,7.12550926 Z M70.1089402,2.90685452 C69.9016751,3.08702729 69.8814402,3.40727228 70.0684805,3.62243761 C70.2555209,3.83760294 70.5754655,3.86213443 70.7827305,3.68196166 C70.9899956,3.50178889 71.0102305,3.18154391 70.8231901,2.96637858 C70.6361498,2.75121325 70.3162052,2.72668175 70.1089402,2.90685452 Z M296.029803,1.62632071 C295.835611,1.82051266 295.837765,2.14138906 296.039359,2.34298299 C296.240953,2.54457691 296.561829,2.54673044 296.756021,2.35253848 C296.950213,2.15834653 296.94806,1.83747012 296.746466,1.6358762 C296.544872,1.43428228 296.223995,1.43212875 296.029803,1.62632071 Z" id="Shape"></path>
            </g>
        </g>
    </g>
</svg>