<?xml version="1.0" encoding="UTF-8"?>
<svg width="252px" height="110px" viewBox="0 0 252 110" version="1.1" xmlns="http://www.w3.org/2000/svg" xmlns:xlink="http://www.w3.org/1999/xlink">
    <!-- Generator: Sketch 60 (88103) - https://sketch.com -->
   
    <g id="Page-1" stroke="none" stroke-width="1" fill="none" fill-rule="nonzero">
        <g id="Launch-Screen" transform="translate(-54.000000, -353.000000)" fill="#D40101" stroke="#FDFDFD">
            <g id="Ketchapp_logo" transform="translate(59.000000, 356.000000)">
                <g filter="url(#filter-1)">
                    <path d="M0.306161679,50.7502333 L0,50.5005745 L0,25.8356673 C0,8.83291905 0.0454854683,1.01885101 0.146420149,0.681764744 C0.230462673,0.40109183 0.421192723,0.152697945 0.594124367,0.0987067065 C0.982579212,-0.0225750247 15.54058,-0.024923499 15.9283662,0.0963398232 C16.509011,0.27775091 16.5306179,0.599662821 16.5306179,9.06917083 C16.5306179,13.8247259 16.5823146,17.1606218 16.6560107,17.1606218 C16.9704369,17.1606218 17.9091116,16.2655823 18.0347566,15.8459707 C18.1114298,15.5899107 18.3053146,15.1855576 18.4656122,14.9474097 C18.765523,14.5018466 20.010667,12.124357 20.5402197,10.9861386 C20.7043716,10.6333099 20.9851814,10.14063 21.1642409,9.8912946 C21.3433007,9.64195659 21.4898032,9.36415812 21.4898032,9.27396146 C21.4898032,9.05750209 22.8832185,6.32857241 23.4407376,5.45315957 C23.5811773,5.23264231 23.8525626,4.69137291 24.043817,4.2503384 C24.4815271,3.24097574 25.0144803,2.20477001 25.5818099,1.26007061 C26.3727462,-0.0569763589 25.9521498,0 34.8212137,0 C39.1378568,0 42.8646804,0.0457779357 43.1030447,0.10127872 C43.5144722,0.197077007 43.5321551,0.231612465 43.4520354,0.782877999 C43.4056145,1.10225735 43.2495994,1.54398878 43.105333,1.76450604 C42.9610688,1.9850233 42.7253837,2.41803934 42.5815894,2.72676508 C42.4377951,3.03548819 42.1895706,3.42556108 42.0299774,3.59359665 C41.8703842,3.76162959 41.7398091,3.96843207 41.7398091,4.05315598 C41.7398091,4.24924174 40.5425912,6.29324536 39.5012889,7.87496511 C39.2929345,8.19145159 39.1224622,8.49852578 39.1224622,8.55735335 C39.1224622,8.6883919 38.0280774,10.5815488 37.7783033,10.8825874 C37.6791861,11.0020493 37.4739287,11.3628964 37.3221762,11.6844691 C37.1704237,12.0060417 36.8780101,12.5307745 36.6723709,12.8505404 C35.7595496,14.2699656 34.9550484,15.6424134 34.8534261,15.9535928 C34.7926903,16.139572 34.6390245,16.3921947 34.5119463,16.5149781 C34.384868,16.6377641 34.1589572,16.9956448 34.0099222,17.3102693 C33.8608895,17.6248939 33.5883612,18.1349073 33.4043083,18.4436304 C33.2202532,18.7523561 32.9282913,19.245917 32.7555015,19.5404336 C32.5827116,19.8349501 32.2792111,20.3040506 32.0810558,20.5828774 C31.7416926,21.060404 30.994907,22.7321731 30.994907,23.0143529 C30.994907,23.2847352 31.7353427,24.9583715 32.0468985,25.3922081 C32.2259569,25.6415435 32.3724597,25.9315103 32.3724597,26.0365763 C32.3724597,26.1416449 32.5416578,26.5149944 32.7484559,26.8662478 C33.139946,27.5312 33.323834,27.8903956 33.8688725,29.0547838 C34.0478948,29.437238 34.3051528,29.8944909 34.4405574,30.0709052 C34.575962,30.2473196 34.8014301,30.6478883 34.9415942,30.9610585 C35.265346,31.6844175 35.664381,32.4534678 36.0491667,33.0956506 C36.2151075,33.3725918 36.4715409,33.8965882 36.6190173,34.2600836 C36.7664958,34.623579 36.9544092,34.9693728 37.0366026,35.0285133 C37.1187959,35.0876538 37.3137526,35.4397724 37.4698355,35.810997 C37.8601985,36.7394149 38.4415199,37.8614596 38.8125126,38.4025817 C38.9829848,38.6512255 39.1224622,38.9476487 39.1224622,39.0612959 C39.1224622,39.1749431 39.2685968,39.4719317 39.4472079,39.7212671 C39.6258168,39.9706025 39.904975,40.4993669 40.0675591,40.8962984 C40.3547885,41.5975455 40.7377196,42.2924572 41.3187835,43.1669311 C41.4745817,43.4013999 41.6027826,43.653991 41.6036749,43.728248 C41.6045784,43.8025024 41.9134687,44.4406142 42.2901268,45.1462689 C42.6667848,45.8519236 43.1084571,46.7179557 43.2716194,47.0707817 C43.4347795,47.4236104 43.7147803,47.9162903 43.893841,48.1656283 C44.0728994,48.4149637 44.2194021,48.7093093 44.2194021,48.8197296 C44.2194021,48.93015 44.4165952,49.3670846 44.6576046,49.7906988 C45.391808,51.0811631 45.9093057,51.0152375 35.4453576,50.9642601 C27.5499817,50.9257982 26.2939413,50.8874074 26.1205076,50.6792479 C26.0102697,50.5469365 25.4228469,49.2943687 24.8151209,47.8957641 C24.2073972,46.4971596 23.6222966,45.234196 23.5149004,45.0891797 C23.407502,44.944166 23.2574708,44.6089338 23.1814918,44.3442189 C23.105515,44.079504 22.8797713,43.5822902 22.6798427,43.2392999 C22.4799125,42.896307 22.3163345,42.4869466 22.3163345,42.3296093 C22.3163345,42.1722721 22.1606041,41.8280747 21.9702655,41.5647273 C21.7799278,41.3013774 21.5303362,40.7761949 21.415618,40.3976566 C21.3008995,40.0191157 21.1173187,39.5939814 21.0076602,39.4529125 C20.8980015,39.3118436 20.7214159,38.9097891 20.6152454,38.5594588 C20.5090761,38.2091285 20.2594845,37.6433276 20.0605977,37.3021256 C19.8617122,36.9609236 19.6989863,36.6148458 19.6989863,36.5330621 C19.6989863,36.4512758 19.5525732,36.154629 19.3736224,35.873843 C19.1946729,35.593057 18.9799774,35.1255792 18.8965227,34.8350048 C18.8130664,34.5444304 18.6271411,34.1114144 18.4833536,33.8727458 C18.3395661,33.6340798 18.1479363,33.1731687 18.0575096,32.8485007 C17.8719934,32.1824176 16.8268961,31.3006905 16.6362828,31.6494376 C16.580488,31.7515213 16.5338868,36.076777 16.5327268,41.2611141 L16.530626,50.6871848 L16.1772702,50.8435937 C15.963167,50.9383611 12.8265801,51 8.21812315,51 C1.55723999,51 0.574295367,50.9689833 0.306169812,50.7503411 L0.306161679,50.7502333 Z" id="path4170" stroke-width="0.60982549" fill-rule="nonzero"></path>
                    <path d="M62.7324327,51.9290927 C61.9236309,51.8669967 60.8522345,51.7070777 60.3515479,51.5737177 C59.8508635,51.4403577 58.9371787,51.2471423 58.3211388,51.1443489 C57.7051013,51.0415556 56.9666578,50.821945 56.6801558,50.656327 C56.3936538,50.4907089 55.826288,50.2772242 55.4193436,50.1819202 C55.0123992,50.0866136 54.4588611,49.8445921 54.189262,49.6440929 C53.9196629,49.443591 53.4636197,49.1952485 53.1758362,49.0922209 C52.8880527,48.9891907 52.6159273,48.8376719 52.571114,48.7555095 C52.5262983,48.6733472 52.2260604,48.4547099 51.9039153,48.2696449 C51.5817702,48.0845825 51.0976144,47.7240809 50.8280153,47.46853 C50.558414,47.2129817 50.1594318,46.8476763 49.9413866,46.6567405 C49.3877888,46.1719766 48.4555475,45.1332641 47.9569507,44.4456615 C46.9014169,42.9900062 45.7861442,41.0680321 45.7861442,40.7046602 C45.7861442,40.5836586 45.6309246,40.1527753 45.4412101,39.747142 C44.796185,38.3679995 44.2193204,35.5721815 44.0621946,33.0636546 C43.8941714,30.3811641 44.0832314,26.7333355 44.4296399,25.9743024 C44.5470623,25.717008 44.7463742,25.0454824 44.8725558,24.4820172 C45.2932821,22.6032751 46.462109,20.2116746 48.0039734,18.0746492 C48.5298583,17.3457742 50.4238728,15.2847593 50.5678047,15.2847593 C50.619315,15.2847593 50.9254804,15.0348138 51.248172,14.7293274 C51.5708614,14.4238384 51.9115698,14.1738955 52.0052983,14.1738955 C52.0990291,14.1738955 52.3086297,14.0335874 52.4710745,13.8620985 C52.8318436,13.4812522 55.0299497,12.3442899 55.7998588,12.1402984 C56.107974,12.0586591 56.6751837,11.8484246 57.0603266,11.6731078 C58.0065128,11.2424015 60.1540158,11 63.0235486,11 C65.9465322,11 67.7771608,11.2103099 69.2448477,11.7147264 C69.8610758,11.9265118 70.6248851,12.1739383 70.9422005,12.2645607 C71.2595158,12.3551832 71.6741423,12.5674864 71.8635904,12.7363418 C72.0530408,12.9051997 72.3714286,13.0898223 72.5711195,13.1466123 C72.9144621,13.2442557 73.8581083,13.8682399 74.8916982,14.6810834 C75.4068304,15.0861987 77.3133246,17.230737 77.8537284,18.012954 C78.3211995,18.6896035 79.0793179,20.1292026 79.1973971,20.564463 C79.2502095,20.7591409 79.4745107,21.3111924 79.6958469,21.7912436 C79.9171831,22.2712947 80.0984094,22.7813269 80.0985747,22.9246485 C80.0987148,23.0679674 80.2990878,24.0320382 80.5437895,25.0670268 C80.9869305,26.9413138 80.9887471,26.9650337 80.9989601,31.0107459 C81.00709,34.2334501 80.9694994,35.1269049 80.8169989,35.3351772 C80.6413763,35.5750284 79.7382902,35.5976893 70.354705,35.5976893 C62.859278,35.5976893 59.9882502,35.6474452 59.727904,35.7818565 C59.3277667,35.9884399 59.331269,35.970812 59.5569045,36.6426837 C59.7281865,37.1527133 61.0739359,38.6128888 61.3727155,38.6128888 C61.4670411,38.6128888 61.8517866,38.7984144 62.2277041,39.0251683 C63.633073,39.8728929 69.2463519,40.5054673 70.6904161,39.9788507 C71.050781,39.8474346 71.94435,39.6911172 72.6761196,39.6314777 C73.4955984,39.5646897 74.5107994,39.348254 75.3193188,39.0679657 C76.8418368,38.5401546 77.3740143,38.4980051 77.5586119,38.890606 C77.7812641,39.3641358 78.3869233,42.7539075 78.4813224,44.054851 C78.5306715,44.7349538 78.6881786,45.7347307 78.8313366,46.2765786 C79.1519545,47.4901187 79.2979465,48.6271018 79.1784525,48.9799474 C79.0519448,49.3535046 77.9948792,49.8525968 76.597576,50.1985021 C75.9428317,50.3605862 75.1532776,50.5964611 74.8430082,50.72267 C74.5327388,50.8488788 73.335294,51.0688042 72.1820219,51.2113945 C71.0287475,51.3539849 69.6755067,51.5729865 69.1748223,51.6980633 C68.0919017,51.9685878 64.7893766,52.087021 62.7324327,51.9290927 L62.7324327,51.9290927 Z M67.1228483,26.5382569 C67.3610139,26.1529684 67.2851713,25.7463619 66.7179777,24.3676358 C66.3475009,23.4670871 65.5471665,22.4908896 64.7942499,22.0211956 C64.168406,21.6307729 62.7932556,21.5602324 61.7520686,21.8651436 C60.6157592,22.1979125 59.8569862,22.979773 59.1585539,24.5375737 C58.6527482,25.6657375 58.5503432,26.3519766 58.8389879,26.6790438 C58.9617683,26.8181678 60.0727923,26.8694774 62.9625787,26.8694774 C66.8144024,26.8694774 66.9234744,26.8607857 67.1228483,26.5382569 L67.1228483,26.5382569 Z" id="path4174" stroke-width="0.60982549" fill-rule="nonzero"></path>
                    <path d="M111.767035,51.8005172 C111.267249,51.6964309 110.730861,51.5310753 110.575065,51.4330549 C110.419269,51.3350319 109.884532,51.1716142 109.386761,51.0698971 C108.888988,50.9681852 108.386224,50.7878507 108.269506,50.6691595 C108.152787,50.5504657 107.804091,50.3246774 107.494626,50.1674061 C107.185158,50.0101349 106.723203,49.7032353 106.468058,49.4854066 C105.906609,49.0060723 103.938201,46.7707974 103.938201,46.6125651 C103.938201,46.5504983 103.789532,46.2982045 103.607829,46.051909 C103.426123,45.805611 103.231366,45.4258714 103.175036,45.2080428 C103.118705,44.9902141 102.894685,44.3842549 102.677215,43.8614645 C101.692553,41.4943977 101.797239,36.5930538 102.889685,33.9136709 C103.254882,33.0179706 103.668231,32.3675967 104.521518,31.3460924 C105.15003,30.5936767 105.889278,29.8362342 106.16429,29.6628852 C106.439304,29.4895362 107.104686,29.061441 107.642916,28.7115606 C108.342784,28.2566094 109.039626,27.9695154 110.089428,27.7036169 C110.896776,27.4991254 111.746065,27.2409839 111.976736,27.1299667 C112.684618,26.7892799 118.876292,26.7468421 121.208698,27.0666919 C122.93159,27.3029572 123.151953,27.3051809 123.343402,27.0882277 C123.871764,26.4894904 123.441761,25.3692383 122.306543,24.3869869 C121.828435,23.9732992 121.449323,23.8037715 120.674755,23.6572994 C120.119814,23.5523558 119.495893,23.3680856 119.288262,23.2478071 C118.709031,22.9122614 115.885848,22.9597987 114.346801,23.3310149 C113.658388,23.4970589 112.59186,23.6829034 111.976736,23.7439986 C111.361614,23.8050964 110.35505,24.0201766 109.739928,24.2219586 C109.124803,24.4237406 108.226325,24.6922603 107.743308,24.8186696 C106.893678,25.0410262 106.858415,25.0376984 106.659853,24.7164563 C106.546969,24.5338279 106.452559,24.2042208 106.450048,23.9839969 C106.44755,23.7637731 106.320829,23.1914971 106.168471,22.7122745 C106.016114,22.2330519 105.794689,21.1280671 105.676416,20.2567524 C105.558145,19.3854377 105.343068,18.3083819 105.19847,17.8632997 C105.053873,17.4182149 104.865228,16.4719145 104.779258,15.7604117 C104.633065,14.5504547 104.641652,14.4370111 104.912031,14.0067234 C105.200659,13.5473974 105.645032,13.3211051 106.623371,13.1352476 C106.908414,13.0810963 107.412608,12.9009618 107.743799,12.734949 C108.07499,12.5689336 108.911248,12.3554276 109.602148,12.2604908 C110.29305,12.165554 111.141429,11.989246 111.487434,11.8686974 C113.648295,11.1158531 119.946824,10.7786266 124.82469,11.1546149 C125.97051,11.2429352 127.134349,11.3780497 127.411002,11.454872 C129.671253,12.0824995 131.215834,12.5962131 131.683234,12.8757761 C131.98783,13.0579629 132.33849,13.2070224 132.462481,13.2070224 C132.586467,13.2070224 132.99761,13.4565365 133.376129,13.7614956 C133.754645,14.0664573 134.119152,14.3159689 134.186138,14.3159689 C134.253117,14.3159689 134.514642,14.5120149 134.767272,14.7516262 C135.019925,14.9912375 135.482867,15.3957472 135.796018,15.6505374 C136.109169,15.9053277 136.589327,16.4399979 136.863025,16.8386936 C137.973084,18.4557581 138.189448,18.8030302 138.191901,18.9715629 C138.194193,19.0684975 138.382015,19.4615119 138.611285,19.8449325 C138.840555,20.2283532 139.029638,20.7273788 139.031472,20.953879 C139.033764,21.1803791 139.193687,21.7934329 139.387905,22.3162233 C139.606148,22.9036393 139.790348,23.8114091 139.870103,24.6925357 C140.043391,26.6067035 140.043253,50.4419943 139.869965,50.7527673 C139.755296,50.9584227 138.701723,50.9962571 132.040566,51.0339305 C126.815196,51.0634857 124.254753,51.0235393 124.066777,50.9095423 C123.833362,50.7679853 123.789569,50.5746071 123.787832,49.6778547 C123.785768,48.6323674 123.591716,47.9034905 123.284836,47.7889376 C123.199281,47.7570002 122.791181,48.0365267 122.377942,48.4101095 C121.449531,49.2494244 120.283923,50.1190843 120.08739,50.1190843 C120.006532,50.1190843 119.72086,50.2881184 119.452561,50.4947142 C119.184262,50.7013099 118.682936,50.9242953 118.338501,50.990238 C117.994067,51.0561807 117.459784,51.2165979 117.151206,51.346722 C116.452482,51.6413652 114.306756,52.0121891 113.374743,51.9996924 C112.990292,51.9940694 112.266823,51.9045958 111.767035,51.800512 L111.767035,51.8005172 Z M122.071916,41.2955279 C122.360522,41.1312062 122.80605,40.6312921 123.120911,40.1184825 C123.566849,39.3921929 123.694904,39.0107102 123.81223,38.0590116 C123.998957,36.5443735 123.909644,35.3232173 123.582149,34.9131432 C123.355896,34.6298368 123.153556,34.5938442 121.787111,34.5938442 C120.363139,34.5938442 120.182687,34.6293874 119.392842,35.065424 C118.923017,35.3247916 118.341857,35.7703518 118.101373,36.0555546 C117.425789,36.8567675 117.175667,38.3544134 117.497912,39.6688541 C117.668919,40.3663912 118.527887,41.3281407 119.17647,41.5482659 C119.857054,41.7792524 121.469542,41.6385007 122.071916,41.2955279 L122.071916,41.2955279 Z" id="path4188" stroke-width="0.60982549" fill-rule="nonzero"></path>
                    <path d="M186.29561,99.8719825 C185.411088,99.8124067 184.509388,99.684583 184.291821,99.5879531 C184.074254,99.4912969 183.181098,99.2959611 182.307045,99.1538413 C181.43297,99.0117215 180.220341,98.723356 179.612304,98.5129883 C179.004267,98.3026205 178.133658,98.0448181 177.677608,97.9400679 C177.221581,97.8353176 176.630811,97.6226109 176.364795,97.4674039 C176.098779,97.3121707 175.539917,97.1012773 175.122866,96.9987082 C174.705815,96.8961654 174.218538,96.70125 174.039993,96.565595 C173.861425,96.4299137 173.394226,96.2104007 173.001739,96.0777415 C172.609253,95.9451087 172.093763,95.706175 171.856209,95.546737 C171.618632,95.3873253 171.082634,95.1417429 170.665107,95.0009634 C170.247558,94.8602101 169.830824,94.6400664 169.739025,94.5117959 C169.647226,94.3835254 169.270761,94.1624882 168.902431,94.0206312 C168.534101,93.8787479 168.160989,93.6623884 168.073292,93.5398469 C167.985571,93.4172791 167.608404,93.1993691 167.235134,93.0555937 C166.861841,92.9118183 166.52007,92.725943 166.475632,92.6425843 C166.431194,92.5591993 166.017746,92.2582197 165.556823,91.9737173 C165.095901,91.6892412 164.5563,91.3482904 164.3577,91.216078 C162.852791,90.2140914 162.406575,89.8855708 162.24591,89.6612223 C162.004481,89.3241083 161.895731,76.0205793 162.130249,75.5123723 C162.357379,75.0201985 162.827909,75.1247464 163.56509,75.8311931 C163.93299,76.1837648 164.296765,76.4722328 164.373449,76.4722328 C164.450157,76.4722328 164.725396,76.6885817 164.985089,76.9530092 C165.244783,77.2174366 165.543612,77.4337882 165.649144,77.4337882 C165.754676,77.4337882 166.016794,77.6037959 166.231642,77.8115856 C166.44649,78.0193727 166.902109,78.3448659 167.24413,78.5349038 C167.90721,78.9033194 168.318301,79.1675209 169.329113,79.8748375 C169.677796,80.1188273 170.057184,80.3184572 170.172233,80.3184572 C170.28726,80.3184572 170.659963,80.4902282 171.000421,80.7001703 C171.745646,81.1596734 173.921522,82.1756275 174.499216,82.3337962 C174.727229,82.3962286 175.131431,82.5720545 175.397448,82.7245205 C175.663464,82.876984 176.316437,83.1227871 176.848469,83.2707462 C177.380501,83.4187027 178.095656,83.6742975 178.437677,83.8387313 C178.779698,84.003165 179.525943,84.2126892 180.095978,84.3043391 C180.666012,84.3959917 181.394129,84.5781011 181.71401,84.7090258 C182.427873,85.0012175 183.845039,85.2348217 185.761833,85.3762713 C186.559904,85.4351638 187.636681,85.5832885 188.154686,85.705441 C189.261987,85.9665572 193.979598,86.0130484 194.534676,85.7683122 C194.733276,85.6807409 195.934416,85.5004396 197.203856,85.3676438 C199.992482,85.0759276 201.120767,84.8905833 201.485313,84.6643242 C201.636347,84.5705904 202.218007,84.417357 202.777889,84.3238044 C203.337772,84.2302545 204.200086,83.9840887 204.694116,83.7767746 C205.188146,83.5694605 206.027664,83.2532125 206.559719,83.0740017 C208.097192,82.5561238 208.859164,82.2470475 209.599925,81.8408209 C209.979948,81.6324162 210.477445,81.4124485 210.705459,81.3520003 C210.933473,81.2915547 211.368789,81.0800622 211.672807,80.8820221 C211.976825,80.6839795 212.474322,80.4309836 212.778341,80.3198106 C213.082359,80.208635 213.42438,80.0268384 213.538409,79.9158178 C213.741519,79.718009 214.513938,79.2241874 215.963056,78.3656478 C216.362567,78.1289558 216.729266,77.8605733 216.777941,77.7692361 C216.826617,77.6779016 217.128165,77.4566488 217.448046,77.2775642 C218.022296,76.9560602 218.799813,76.3733454 219.205511,75.9604149 C219.32022,75.8436733 219.660088,75.5798214 219.960776,75.3740788 L220.507492,75 L220.75411,75.3532208 C220.98183,75.6793342 221.000706,76.2062732 221,82.2192595 C221,86.1748647 220.943578,88.9644202 220.857489,89.3238192 C220.764557,89.7119156 220.610236,89.9531093 220.409144,90.0246159 C220.092753,90.1371449 218.751885,91.0213465 218.040515,91.5865408 C217.42713,92.0739212 212.270624,95.0622999 212.043041,95.0622999 C211.933362,95.0622999 211.642464,95.2064957 211.396594,95.3827001 C211.150723,95.5589307 210.521521,95.8764402 209.998372,96.0883059 C209.4752,96.3001716 208.425299,96.7374107 207.665253,97.0599659 C206.905184,97.382521 205.646077,97.8196024 204.8672,98.0312579 C204.088346,98.2428871 203.340423,98.4847378 203.205183,98.5686746 C203.069943,98.6526115 202.121449,98.8739904 201.097426,99.0606277 C200.073381,99.2472651 199.039546,99.4718238 198.799975,99.5595975 C197.712548,99.9580742 190.316489,100.142846 186.29561,99.8719825 L186.29561,99.8719825 Z" id="path4196" stroke-width="0.60982549" fill-rule="nonzero"></path>
                    <path d="M150.227694,64.4502387 C149.924102,63.6223758 149.924102,12.3190215 150.227694,11.4911586 L150.429298,10.9413973 L157.863296,10.9413973 C164.603749,10.9413973 165.315112,10.9658075 165.488265,11.2031422 C165.615328,11.3773018 165.702509,12.0801737 165.748803,13.3036604 L165.818369,15.1424336 L166.286421,15.0997458 C166.631584,15.0682699 166.97871,14.8237941 167.608255,14.1688014 C168.494482,13.2467476 170.412685,11.7340461 170.695652,11.7340461 C170.784818,11.7340461 171.208309,11.5209213 171.636729,11.2604372 C172.104187,10.9762266 172.877086,10.6949926 173.569466,10.5571779 C174.204053,10.4308664 175.005016,10.2533742 175.349381,10.1627473 C176.123056,9.95914481 177.124504,9.94481587 177.659202,10.1297013 C177.881067,10.2064152 178.657411,10.3940484 179.384426,10.54666 C181.153754,10.9180816 183.34849,12.1201944 184.869966,13.5512298 C185.573594,14.213036 187.593627,16.8358118 187.593627,17.0875847 C187.593627,17.1686685 187.76703,17.5132338 187.97897,17.8532836 C188.801699,19.1733658 189.754047,21.6993615 190.184429,23.7030319 C190.296799,24.2261812 190.526855,25.2249177 190.695626,25.9224475 C190.972273,27.065638 191.002253,27.5580108 190.999878,30.91613 C190.997462,33.6108001 190.948521,34.7396955 190.821891,34.9961996 C190.725607,35.1912417 190.529821,36.0901565 190.386786,36.9937896 C190.243774,37.8974227 190.020632,38.8705663 189.890922,39.1563288 C189.761234,39.4420939 189.565334,40.0203831 189.455588,40.4414205 C189.345843,40.8624527 189.193613,41.2509095 189.117293,41.304656 C189.04095,41.3583999 188.791363,41.8429973 188.562608,42.3815414 C187.774377,44.2372302 187.126214,45.2427516 185.616489,46.9518963 C184.402165,48.3266375 183.631365,48.9984677 182.72376,49.4732101 C182.379395,49.6533383 181.856174,49.947825 181.561046,50.1276283 C181.265919,50.3074315 180.608493,50.5787923 180.100079,50.7306526 C179.591666,50.8825128 178.771651,51.1312026 178.277818,51.2832942 C177.100228,51.6459631 174.078907,51.5623212 173.123159,51.1405923 C172.778794,50.9886385 172.138434,50.7622246 171.700135,50.6374521 C171.261836,50.512677 170.677946,50.2363925 170.402578,50.0234861 C170.127232,49.8105797 169.765778,49.5879534 169.599379,49.5287607 C169.43298,49.4695655 168.952471,49.0840463 168.531581,48.6720476 C167.546834,47.70813 166.88651,47.3118303 166.671992,47.5560176 C166.559964,47.6835405 166.493843,50.168967 166.444492,56.1059393 C166.388204,62.8788541 166.338488,64.5260609 166.183953,64.7380367 C166.01055,64.97592 165.277648,65 158.211151,65 L150.429298,65 L150.227694,64.4502387 L150.227694,64.4502387 Z M171.304091,37.3212938 C172.245899,36.9751817 172.544996,36.7741346 173.183804,36.0578358 C174.690404,34.3684766 175.353374,31.7759834 174.938028,29.1979648 C174.568291,26.9030883 172.995456,24.7036895 171.395904,24.2447891 C170.612555,24.0200493 168.587138,24.1289643 168.101587,24.4219407 C166.898557,25.1478242 165.76393,26.851437 165.486896,28.347826 C165.29403,29.3896923 165.284676,32.0191023 165.470012,33.1319192 C165.546195,33.589681 165.780996,34.2891137 165.991773,34.6862141 C166.539955,35.718948 167.628789,36.8980649 168.155889,37.0297757 C168.400821,37.0909805 168.819453,37.274223 169.086151,37.4369833 C169.721446,37.8246654 169.969709,37.8117168 171.304183,37.3212938 L171.304091,37.3212938 Z" id="path4200" stroke-width="0.60982549" fill-rule="nonzero"></path>
                    <path d="M201.010764,37.6711806 C201.036568,14.7723313 201.058594,11.6667401 201.197284,11.3523396 L201.354518,10.9958776 L208.721403,10.9653696 C214.993153,10.9393999 216.122239,10.9603214 216.316814,11.1061059 C216.642501,11.3501434 216.781259,12.1295636 216.781259,13.7149516 C216.781259,14.4760837 216.826222,15.1129488 216.882767,15.1529156 C217.12581,15.3246933 217.852365,14.9441012 218.32209,14.3989525 C219.28336,13.2833594 220.308707,12.4396028 221.456861,11.8193787 C221.771171,11.6495917 222.348752,11.3280093 222.740359,11.1047501 C223.131967,10.881491 223.552769,10.6974571 223.675462,10.6957865 C223.798177,10.6942252 224.576546,10.5341755 225.405156,10.3403627 C227.101697,9.94354599 227.755142,9.90800283 228.730042,10.1595112 C229.101489,10.2553391 229.943115,10.4471873 230.600292,10.5858366 C231.441941,10.7634093 231.936923,10.9359103 232.274693,11.1693778 C232.538419,11.3516709 232.988802,11.5899264 233.275511,11.6988354 C233.562242,11.8077418 233.876711,11.9977945 233.974351,12.1211716 C234.071992,12.2445487 234.322953,12.4379427 234.532045,12.5509371 C235.508515,13.0785835 237.591134,15.4545446 238.366795,16.9257619 C238.466915,17.1156793 238.740835,17.5995805 238.975504,18.0010993 C239.210173,18.4026181 239.456788,18.9203399 239.523527,19.1515955 C239.590244,19.3828485 239.761632,19.7530501 239.904349,19.9742666 C240.047066,20.1954804 240.212196,20.591761 240.271313,20.8548881 C240.33043,21.1180127 240.53711,21.7877901 240.730616,22.3432772 C240.924121,22.8987644 241.133305,23.7275427 241.19547,24.1850032 C241.257659,24.6424636 241.420696,25.4712394 241.55777,26.0267265 C241.698667,26.5976368 241.861203,27.7349763 241.931651,28.6429208 C242.102766,30.8487046 241.933927,34.5303454 241.632177,35.1481521 C241.56,35.2962473 241.411298,36.0448187 241.301712,36.8116444 C241.096465,38.2478755 240.95104,38.8618804 240.71785,39.2766755 C240.64392,39.4081532 240.489621,39.863152 240.374938,40.2877808 C240.260232,40.7124095 240.049068,41.2417291 239.905623,41.4640437 C239.762201,41.6863583 239.590699,42.0601378 239.524483,42.2946618 C239.458289,42.5291884 239.248628,42.9659225 239.058581,43.2651835 C238.868535,43.5644445 238.662446,43.9614277 238.600644,44.1473664 C238.53882,44.3333051 238.338215,44.6980681 238.154881,44.9579529 C237.493949,45.8947659 235.362203,48.2620748 234.8269,48.6536689 C234.526015,48.8737846 234.219806,49.1365787 234.146445,49.2376551 C234.073106,49.3387315 233.771198,49.5107798 233.475592,49.6199802 C233.179964,49.7291859 232.726259,49.9707774 232.467334,50.1568566 C232.208431,50.3429332 231.670739,50.5804393 231.272465,50.6846487 C230.87419,50.7888582 230.17428,51.0120106 229.717116,51.1805486 C229.026922,51.4349896 228.62462,51.496833 227.345968,51.5450488 C225.56057,51.6123749 224.568331,51.4666998 223.490512,50.9790124 C223.086344,50.7961339 222.557571,50.6098283 222.315462,50.5650005 C222.073352,50.5201702 221.699289,50.3461339 221.484235,50.1782543 C221.26918,50.0103721 220.882807,49.7669409 220.625656,49.6372951 C220.368483,49.5076468 219.983793,49.235196 219.770764,49.0318462 C218.822123,48.1262931 218.599378,47.9367374 218.254212,47.7412565 C217.819121,47.4948275 217.654286,47.4811037 217.540672,47.6818461 C217.494458,47.7635363 217.433248,51.548913 217.404668,56.0937928 C217.356564,63.7453308 217.339089,64.3810145 217.168497,64.6786075 L216.984276,65 L209.206692,65 C205.114056,65 202.485227,64.9499644 201.320204,64.8498933 C200.990398,64.3954618 200.981524,63.6156174 201.010764,37.6711806 Z M222.516909,37.2156483 C223.648019,36.7238313 224.580118,35.7582954 225.120882,34.5182583 C225.262371,34.1937926 225.45797,33.7541389 225.555519,33.541252 C225.924622,32.7357397 226.045199,30.1285152 225.773918,28.8190207 C225.47722,27.3868907 224.591382,25.893953 223.388321,24.7984669 C222.68254,24.1557885 221.031872,23.8696529 219.852817,24.1856095 C218.991122,24.4165243 218.887861,24.475729 218.140599,25.1674324 C217.761688,25.5181697 217.387078,26.0300027 217.060367,26.6433727 C216.376226,27.9277822 216.217171,28.8956392 216.292762,31.3142604 C216.352516,33.2263441 216.459212,33.8421654 216.828019,34.4036037 C216.956788,34.5996596 217.144082,34.9472093 217.244202,35.1759408 C217.567341,35.9140983 218.48078,36.7946314 219.212138,37.0729578 C219.572844,37.2102254 219.956624,37.4033253 220.064982,37.5020702 C220.366231,37.7765974 221.542919,37.6391399 222.516909,37.2156483 L222.516909,37.2156483 Z" id="path4226" stroke-width="0.45662099" fill-rule="nonzero"></path>
                </g>
            </g>
        </g>
    </g>
</svg>